<svg width="148" height="148" viewBox="0 0 148 148" fill="none" xmlns="http://www.w3.org/2000/svg">
<g opacity="0.1" clip-path="url(#clip0_4697_16011)">
<path fill-rule="evenodd" clip-rule="evenodd" d="M105.453 29.1686V76.1856H129.03V29.1686C129.03 22.6947 123.717 17.3801 117.242 17.3801C110.766 17.3801 105.453 22.6935 105.453 29.1684L105.453 29.1686ZM47.4706 49.6894C45.8838 48.1027 45.8838 45.5292 47.4706 43.9425C49.0583 42.3541 51.6319 42.3541 53.2203 43.9425L55.4475 46.1702L62.6447 38.9744C57.6368 35.1007 50.5278 35.5627 46.0548 40.0346C41.1409 44.9489 41.1409 52.9161 46.0548 57.831C50.9681 62.7448 58.9363 62.7448 63.8495 57.831C65.3794 56.3015 66.4893 54.4036 67.072 52.3202C67.6547 50.2369 67.6905 48.0386 67.1761 45.9373L58.3225 54.7927C56.7341 56.3789 54.1604 56.3789 52.5737 54.7927L47.4706 49.6894ZM68.4208 33.1975L73.5247 28.0933C75.1114 26.5064 77.6855 26.5064 79.2728 28.0933C80.8589 29.681 80.8589 32.2546 79.2728 33.8412L73.4688 39.6442C77.4912 47.6456 75.8813 57.2964 69.5983 63.5781C61.5083 71.6686 48.3966 71.6686 40.3061 63.5781C32.2178 55.4898 32.2178 42.3763 40.3061 34.287C47.9558 26.6373 60.2055 26.159 68.4208 33.1975ZM29.5746 118.191C27.3289 118.191 25.5093 120.011 25.5093 122.256C25.5093 124.5 27.3289 126.321 29.5746 126.321C31.8194 126.321 33.64 124.5 33.64 122.256C33.64 120.011 31.8194 118.191 29.5746 118.191ZM45.8345 126.321C43.5882 126.321 41.7697 124.5 41.7697 122.256C41.7697 120.011 43.5882 118.191 45.8345 118.191H85.1291C87.3737 118.191 89.1939 120.011 89.1939 122.256C89.1939 124.5 87.3737 126.321 85.1291 126.321H45.8345ZM29.5746 101.931C27.3289 101.931 25.5093 103.75 25.5093 105.996C25.5093 108.241 27.3289 110.061 29.5746 110.061C31.8194 110.061 33.64 108.241 33.64 105.996C33.64 103.75 31.8194 101.931 29.5746 101.931ZM45.8344 110.061C43.5881 110.061 41.7696 108.241 41.7696 105.996C41.7696 103.75 43.5881 101.931 45.8344 101.931H85.129C87.3736 101.931 89.1938 103.75 89.1938 105.996C89.1938 108.241 87.3736 110.061 85.129 110.061H45.8344ZM105.453 84.3156V143.935C105.453 146.18 103.634 148 101.389 148H13.3148C11.0685 148 9.25 146.18 9.25 143.935V28.762C9.25014 18.0105 18.0091 9.25 28.7621 9.25H117.242C128.205 9.25 137.16 18.2059 137.16 29.1684V80.2504C137.16 82.4955 135.34 84.3156 133.095 84.3156H105.453ZM101.207 17.3801C98.7694 20.6845 97.3239 24.765 97.3239 29.1684V139.87H17.3796V28.762C17.3796 22.4987 22.4976 17.3801 28.762 17.3801H101.207ZM29.5746 85.6711C27.3289 85.6711 25.5093 87.4913 25.5093 89.7359C25.5093 91.9812 27.3289 93.8012 29.5746 93.8012C31.8194 93.8012 33.64 91.9812 33.64 89.7359C33.64 87.4913 31.8194 85.6711 29.5746 85.6711ZM45.8345 93.8012H85.1291C87.3737 93.8012 89.1939 91.9812 89.1939 89.7359C89.1939 87.4913 87.3737 85.6711 85.1291 85.6711H45.8344C43.5881 85.6711 41.7696 87.4913 41.7696 89.7359C41.7696 91.9812 43.5881 93.8012 45.8344 93.8012H45.8345Z" fill="#2D2C65"/>
</g>
<defs>
<clipPath id="clip0_4697_16011">
<rect width="148" height="148" fill="white"/>
</clipPath>
</defs>
</svg>
