<svg width="48" height="48" viewBox="0 0 48 48" fill="none" xmlns="http://www.w3.org/2000/svg">
<path d="M27.5606 40.9688H4.125V1.40625H35.4375V29.8134" stroke="#2D2C65" stroke-width="2.8125" stroke-miterlimit="10" stroke-linecap="round" stroke-linejoin="round"/>
<path d="M9.75 8.20312L11.5312 9.98438L14.4844 7.03125M9.75 16.6406L11.5312 18.4219L14.4844 15.4688M9.75 25.0781L11.5312 26.8594L14.4844 23.9062M9.75 33.5156L11.5312 35.2969L14.4844 32.3438M29.8125 8.50781H19.9688M29.8125 16.9453H19.9688M29.8125 25.3828H19.9688" stroke="#2D2C65" stroke-width="2.8125" stroke-miterlimit="10" stroke-linecap="round" stroke-linejoin="round"/>
<path d="M35.4844 46.5938C40.1184 46.5938 43.875 42.8371 43.875 38.2031C43.875 33.5691 40.1184 29.8125 35.4844 29.8125C30.8504 29.8125 27.0938 33.5691 27.0938 38.2031C27.0938 42.8371 30.8504 46.5938 35.4844 46.5938Z" stroke="#2D2C65" stroke-width="2.8125" stroke-miterlimit="10" stroke-linecap="round" stroke-linejoin="round"/>
<path d="M35.4376 35.4375V38.1553L33.4839 40.1091" stroke="#2D2C65" stroke-width="2.8125" stroke-miterlimit="10" stroke-linecap="round" stroke-linejoin="round"/>
</svg>
