<svg width="48" height="48" viewBox="0 0 48 48" fill="none" xmlns="http://www.w3.org/2000/svg">
<path d="M24.1006 39.5625H12.8506C12.074 39.5625 11.4443 38.9329 11.4443 38.1562C11.4443 37.3796 12.074 36.75 12.8506 36.75H24.1006C24.8772 36.75 25.5068 37.3796 25.5068 38.1562C25.5068 38.9329 24.8772 39.5625 24.1006 39.5625Z" fill="#2D2C65"/>
<path d="M44.337 14.62C44.337 13.4932 43.8982 12.4338 43.1013 11.6369C41.4564 9.99187 38.7798 9.99206 37.1351 11.6369L33.007 15.765V4.21875C33.007 1.89253 31.1144 0 28.7882 0H7.875C5.54878 0 3.65625 1.89253 3.65625 4.21875V43.7812C3.65625 46.1075 5.54878 48 7.875 48H28.7882C31.1144 48 33.007 46.1075 33.007 43.7812V27.6974L43.1013 17.6032C43.8981 16.8064 44.337 15.7469 44.337 14.62ZM27.4261 29.3008L24.443 30.2951L25.4373 27.312L36.1407 16.6087L38.1295 18.5975L27.4261 29.3008ZM12.0938 2.8125H24.5695V4.21875C24.5695 4.99416 23.9386 5.625 23.1632 5.625H13.5C12.7246 5.625 12.0938 4.99416 12.0938 4.21875V2.8125ZM30.1945 43.7812C30.1945 44.5567 29.5636 45.1875 28.7882 45.1875H7.875C7.09959 45.1875 6.46875 44.5567 6.46875 43.7812V4.21875C6.46875 3.44334 7.09959 2.8125 7.875 2.8125H9.28125V4.21875C9.28125 6.54497 11.1738 8.4375 13.5 8.4375H23.1632C25.4894 8.4375 27.382 6.54497 27.382 4.21875V2.8125H28.7882C29.5636 2.8125 30.1945 3.44334 30.1945 4.21875V18.5776L23.2139 25.5581C23.0595 25.7125 22.9432 25.9007 22.8742 26.1078L20.8855 32.074C20.8029 32.3218 20.7909 32.5877 20.8509 32.8418C20.9109 33.096 21.0405 33.3285 21.2252 33.5131C21.4098 33.6978 21.6423 33.8274 21.8965 33.8874C22.1506 33.9474 22.4165 33.9354 22.6643 33.8528L28.6304 31.864C28.8376 31.795 29.0257 31.6787 29.1801 31.5243L30.1945 30.5099V43.7812ZM41.1126 15.6144L40.1182 16.6088L38.1295 14.6201L39.1239 13.6257C39.6723 13.0776 40.5642 13.0774 41.1127 13.6257C41.2437 13.756 41.3475 13.911 41.4182 14.0817C41.489 14.2523 41.5251 14.4354 41.5246 14.6201C41.5251 14.8049 41.4889 14.9879 41.4181 15.1585C41.3474 15.3292 41.2436 15.4842 41.1126 15.6144Z" fill="#2D2C65"/>
</svg>
