<svg width="172" height="124" viewBox="0 0 172 124" fill="none" xmlns="http://www.w3.org/2000/svg">
<g clip-path="url(#clip0_0_211)">
<path d="M170.691 45.7925C170.691 46.4445 170.565 47.0901 170.32 47.6924C170.074 48.2947 169.715 48.8419 169.261 49.3027C168.808 49.7635 168.269 50.1288 167.677 50.3779C167.085 50.6269 166.45 50.7547 165.809 50.754H6.02279C4.72772 50.7554 3.48513 50.2335 2.5683 49.3031C1.65147 48.3726 1.13548 47.1099 1.13379 45.7925V6.22583C1.13548 4.90786 1.65127 3.64444 2.56792 2.71298C3.48456 1.78151 4.72714 1.25815 6.02279 1.25781H165.808C166.449 1.25781 167.084 1.38632 167.676 1.63601C168.269 1.88569 168.807 2.25165 169.261 2.71299C169.714 3.17433 170.074 3.72201 170.319 4.32475C170.564 4.92749 170.69 5.57348 170.69 6.22583L170.691 45.7925Z" fill="white"/>
<path d="M165.809 51.905H6.02243C4.42705 51.9046 2.89696 51.2605 1.7679 50.114C0.638839 48.9674 0.00303557 47.4121 0 45.7892L0 6.22382C0.00236014 4.60016 0.637744 3.04375 1.76677 1.89601C2.89579 0.748271 4.42626 0.102933 6.02243 0.101562L165.807 0.101563C167.403 0.103617 168.933 0.749174 170.062 1.89676C171.191 3.04435 171.827 4.60037 171.83 6.22382V45.7892C171.832 49.1625 169.126 51.905 165.809 51.905Z" fill="#A6A6A6"/>
<path d="M170.691 45.7925C170.691 46.4445 170.565 47.0901 170.32 47.6924C170.074 48.2947 169.715 48.8419 169.261 49.3027C168.808 49.7635 168.269 50.1288 167.677 50.3779C167.085 50.6269 166.45 50.7547 165.809 50.754H6.02279C4.72772 50.7554 3.48513 50.2335 2.5683 49.3031C1.65147 48.3726 1.13548 47.1099 1.13379 45.7925V6.22583C1.13548 4.90786 1.65127 3.64444 2.56792 2.71298C3.48456 1.78151 4.72714 1.25815 6.02279 1.25781H165.808C166.449 1.25781 167.084 1.38632 167.676 1.63601C168.269 1.88569 168.807 2.25165 169.261 2.71299C169.714 3.17433 170.074 3.72201 170.319 4.32475C170.564 4.92749 170.69 5.57348 170.69 6.22583L170.691 45.7925Z" fill="#282828"/>
<path d="M38.3687 25.7315C38.3318 21.5563 41.7295 19.525 41.8849 19.4305C39.9606 16.5766 36.978 16.1867 35.9299 16.1556C33.4249 15.8874 30.9951 17.6803 29.719 17.6803C28.4175 17.6803 26.4525 16.1815 24.3346 16.2256C21.6093 16.2683 19.0597 17.8734 17.6614 20.3658C14.7757 25.4478 16.9279 32.916 19.6927 37.0239C21.0757 39.037 22.6918 41.282 24.8071 41.203C26.8766 41.1175 27.6496 39.8622 30.1469 39.8622C32.6214 39.8622 33.3473 41.203 35.5046 41.1524C37.7256 41.1175 39.1239 39.1316 40.4585 37.1016C42.0568 34.797 42.6986 32.5248 42.7241 32.4082C42.6732 32.3901 38.412 30.7345 38.3687 25.7315ZM34.2935 13.4533C35.4065 12.0374 36.1681 10.1111 35.9567 8.15625C34.3457 8.22879 32.331 9.28976 31.1708 10.6746C30.1444 11.8949 29.2275 13.8951 29.4643 15.776C31.274 15.9134 33.132 14.8472 34.2935 13.4533Z" fill="white"/>
<path d="M165.809 0.101563H80.2227L113.745 51.905H165.809C167.405 51.9036 168.935 51.2586 170.064 50.1115C171.193 48.9643 171.828 47.4085 171.831 45.7853V6.22382C171.829 4.60027 171.193 3.04405 170.064 1.89639C168.935 0.748723 167.405 0.103275 165.809 0.101563Z" fill="url(#paint0_linear_0_211)"/>
<path d="M68.343 40.9168H65.4509L63.8667 35.8529H58.36L56.8509 40.9168H54.0352L59.4921 23.6771H62.8619L68.343 40.9168ZM63.3891 33.7284L61.9564 29.2267C61.8048 28.7669 61.5196 27.6839 61.1019 25.9791H61.0509C60.8828 26.7123 60.6141 27.7953 60.2461 29.2267L58.8376 33.7284H63.3891ZM82.3491 34.5484C82.3491 36.6626 81.7849 38.3337 80.6553 39.5605C79.6442 40.6525 78.3872 41.1979 76.8883 41.1979C75.2697 41.1979 74.1057 40.6111 73.3989 39.4348V45.9574H70.6838V32.5716C70.6838 31.2438 70.6494 29.8822 70.5831 28.4858H72.971L73.1225 30.4561H73.1735C74.0789 28.9715 75.4531 28.2293 77.2971 28.2293C78.7387 28.2293 79.9422 28.8083 80.9049 29.9677C81.8664 31.1298 82.3491 32.6558 82.3491 34.5484ZM79.583 34.6495C79.583 33.4395 79.3156 32.442 78.7782 31.6557C78.1911 30.8383 77.4028 30.4289 76.4145 30.4289C75.7447 30.4289 75.1359 30.6569 74.5922 31.1064C74.0471 31.5598 73.6905 32.1519 73.5237 32.8851C73.4492 33.1593 73.4069 33.4415 73.3976 33.7258V35.7998C73.3976 36.7027 73.6701 37.4658 74.2152 38.0902C74.7603 38.712 75.4683 39.0242 76.3394 39.0242C77.362 39.0242 78.158 38.6213 78.7272 37.822C79.2978 37.0201 79.583 35.963 79.583 34.6495ZM96.4048 34.5484C96.4048 36.6626 95.8407 38.3337 94.7111 39.5605C93.6986 40.6525 92.443 41.1979 90.9428 41.1979C89.3241 41.1979 88.1601 40.6111 87.4533 39.4348V45.9574H84.7382V32.5716C84.7382 31.2438 84.7038 29.8822 84.6376 28.4858H87.0254L87.177 30.4561H87.2279C88.1321 28.9715 89.5062 28.2293 91.3516 28.2293C92.7919 28.2293 93.9954 28.8083 94.9607 29.9677C95.9209 31.1298 96.4048 32.6558 96.4048 34.5484ZM93.6375 34.6495C93.6375 33.4395 93.3688 32.442 92.8314 31.6557C92.2443 30.8383 91.4585 30.4289 90.4703 30.4289C89.8004 30.4289 89.1917 30.6569 88.6453 31.1064C88.1003 31.5598 87.745 32.1519 87.5781 32.8851C87.4954 33.2271 87.4508 33.5056 87.4508 33.7258V35.7998C87.4508 36.7027 87.7246 37.4658 88.2671 38.0902C88.8122 38.7107 89.5202 39.0242 90.3939 39.0242C91.4178 39.0242 92.2137 38.6213 92.7817 37.822C93.3522 37.0201 93.6375 35.963 93.6375 34.6495ZM112.12 36.0809C112.12 37.5487 111.616 38.7418 110.613 39.6628C109.511 40.6681 107.971 41.172 105.997 41.172C104.173 41.172 102.711 40.8145 101.608 40.0981L102.236 37.7961C103.427 38.5138 104.735 38.8713 106.159 38.8713C107.183 38.8713 107.979 38.6355 108.546 38.1679C109.116 37.6989 109.404 37.0719 109.404 36.2895C109.404 35.5887 109.165 35.0018 108.698 34.5238C108.228 34.0471 107.451 33.6027 106.36 33.1947C103.393 32.0689 101.908 30.4224 101.908 28.2565C101.908 26.8418 102.432 25.6837 103.479 24.7782C104.526 23.874 105.914 23.4219 107.641 23.4219C109.183 23.4219 110.468 23.6952 111.488 24.2406L110.807 26.4921C109.847 25.9635 108.763 25.6993 107.551 25.6993C106.593 25.6993 105.842 25.9389 105.304 26.4156C104.852 26.8418 104.623 27.3613 104.623 27.9779C104.623 28.6581 104.884 29.2229 105.403 29.6659C105.854 30.074 106.677 30.5183 107.866 30.995C109.326 31.5935 110.398 32.2905 111.085 33.0911C111.776 33.8916 112.12 34.8904 112.12 36.0809ZM121.12 30.5585H118.127V36.5939C118.127 38.129 118.654 38.8946 119.711 38.8946C120.197 38.8946 120.599 38.8532 120.917 38.7664L120.993 40.8637C120.458 41.0671 119.753 41.1694 118.881 41.1694C117.809 41.1694 116.971 40.8365 116.366 40.1706C115.763 39.5048 115.46 38.3894 115.46 36.8193V30.5533H113.677V28.4806H115.46V26.2045L118.127 25.3858V28.4806H121.12V30.5585ZM134.596 34.5989C134.596 36.5097 134.059 38.0785 132.986 39.3053C131.864 40.5683 130.372 41.1979 128.511 41.1979C126.716 41.1979 125.288 40.593 124.223 39.3843C123.159 38.1731 122.626 36.647 122.626 34.8062C122.626 32.8799 123.177 31.302 124.273 30.0753C125.372 28.8472 126.852 28.2331 128.713 28.2331C130.506 28.2331 131.946 28.8394 133.036 30.0494C134.078 31.223 134.596 32.7387 134.596 34.5989ZM131.782 34.6624C131.782 33.5237 131.54 32.547 131.055 31.7295C130.485 30.7424 129.67 30.2489 128.614 30.2489C127.527 30.2489 126.693 30.7424 126.125 31.7295C125.638 32.547 125.396 33.5406 125.396 34.7142C125.396 35.8542 125.638 36.8336 126.125 37.6484C126.712 38.6355 127.531 39.1291 128.592 39.1291C129.629 39.1291 130.443 38.6252 131.032 37.6238C131.531 36.7869 131.782 35.8037 131.782 34.6624ZM143.425 30.9147C143.143 30.8628 142.857 30.8373 142.57 30.8383C141.614 30.8383 140.876 31.2036 140.356 31.9394C139.905 32.5871 139.679 33.4058 139.679 34.3943V40.9168H136.964V32.4006C136.966 31.0956 136.94 29.7908 136.885 28.4871H139.25L139.349 30.8655H139.424C139.712 30.0481 140.163 29.3887 140.782 28.8951C141.348 28.4638 142.036 28.2303 142.744 28.2293C142.995 28.2293 143.222 28.2474 143.423 28.2798L143.425 30.9147ZM155.568 34.1132C155.575 34.533 155.542 34.9525 155.469 35.3658H147.324C147.354 36.5939 147.749 37.5344 148.505 38.1821C149.192 38.7599 150.079 39.0501 151.17 39.0501C152.376 39.0501 153.476 38.8558 154.465 38.4632L154.891 40.3792C153.734 40.8922 152.369 41.1474 150.794 41.1474C148.899 41.1474 147.411 40.58 146.329 39.4478C145.249 38.3143 144.708 36.7908 144.708 34.8826C144.708 33.0094 145.211 31.4484 146.218 30.2035C147.273 28.8744 148.698 28.2098 150.491 28.2098C152.252 28.2098 153.585 28.8744 154.491 30.2035C155.208 31.2567 155.568 32.5625 155.568 34.1132ZM152.979 33.3968C152.998 32.5768 152.82 31.8707 152.452 31.2735C151.982 30.5041 151.259 30.1206 150.29 30.1206C149.402 30.1206 148.679 30.495 148.128 31.2463C147.676 31.8435 147.408 32.5612 147.325 33.3942L152.979 33.3968Z" fill="white"/>
<path d="M57.5763 17.5815C56.8211 17.5815 56.1678 17.544 55.624 17.4805V9.14561C56.3846 9.0261 57.1531 8.96719 57.9227 8.96943C61.0364 8.96943 62.4704 10.5278 62.4704 13.0682C62.4704 15.9985 60.7766 17.5815 57.5763 17.5815ZM58.0322 10.0382C57.612 10.0382 57.2541 10.0641 56.9574 10.1263V16.4623C57.1178 16.4882 57.426 16.4998 57.859 16.4998C59.8992 16.4998 61.0606 15.3184 61.0606 13.1058C61.0606 11.1328 60.01 10.0382 58.0322 10.0382ZM66.9392 17.645C65.1843 17.645 64.047 16.312 64.047 14.5023C64.047 12.6161 65.2085 11.2714 67.0385 11.2714C68.7679 11.2714 69.9306 12.541 69.9306 14.4025C69.9306 16.312 68.7323 17.645 66.9392 17.645ZM66.9901 12.2637C66.0261 12.2637 65.4084 13.1809 65.4084 14.4634C65.4084 15.7213 66.0388 16.6384 66.9774 16.6384C67.9159 16.6384 68.5463 15.6578 68.5463 14.4375C68.5463 13.1939 67.9287 12.2637 66.9901 12.2637ZM79.9379 11.3971L78.0594 17.5064H76.8356L76.0575 14.8533C75.864 14.2044 75.7029 13.5459 75.5748 12.8804H75.5494C75.4513 13.5462 75.2654 14.2134 75.068 14.8533L74.2402 17.5064H73.0036L71.236 11.3971H72.6076L73.2876 14.3015C73.4481 14.9932 73.5831 15.6461 73.6951 16.2628H73.7206C73.8187 15.7485 73.9791 15.1059 74.2147 14.3144L75.068 11.3984H76.1555L76.9719 14.2522C77.1693 14.944 77.3297 15.6228 77.4545 16.2641H77.4902C77.5768 15.6358 77.7131 14.9686 77.8977 14.2522L78.6274 11.3984L79.9379 11.3971ZM86.853 17.5064H85.5184V13.9983C85.5184 12.9179 85.1109 12.3764 84.3073 12.3764C83.5164 12.3764 82.9726 13.0682 82.9726 13.8727V17.5064H81.638V13.1433C81.638 12.6031 81.6253 12.0241 81.5883 11.3958H82.7625L82.8249 12.3389H82.8619C83.221 11.686 83.9494 11.2714 84.7657 11.2714C86.0265 11.2714 86.8543 12.2521 86.8543 13.8481L86.853 17.5064ZM90.5335 17.5064H89.1976V8.59375H90.5335V17.5064ZM95.3996 17.645C93.6459 17.645 92.5074 16.312 92.5074 14.5023C92.5074 12.6161 93.6689 11.2714 95.4976 11.2714C97.2283 11.2714 98.3898 12.541 98.3898 14.4025C98.391 16.312 97.1914 17.645 95.3996 17.645ZM95.4492 12.2637C94.4852 12.2637 93.8675 13.1809 93.8675 14.4634C93.8675 15.7213 94.4992 16.6384 95.4352 16.6384C96.3751 16.6384 97.0042 15.6578 97.0042 14.4375C97.0055 13.1939 96.3891 12.2637 95.4492 12.2637ZM103.652 17.5064L103.555 16.803H103.519C103.112 17.3691 102.517 17.645 101.763 17.645C100.687 17.645 99.9231 16.8781 99.9231 15.8469C99.9231 14.339 101.208 13.5592 103.433 13.5592V13.4465C103.433 12.642 103.014 12.2391 102.186 12.2391C101.594 12.2391 101.074 12.3907 100.617 12.6925L100.346 11.8C100.901 11.4476 101.594 11.2714 102.408 11.2714C103.977 11.2714 104.769 12.1135 104.769 13.7988V16.049C104.769 16.6656 104.796 17.1437 104.855 17.5077L103.652 17.5064ZM103.469 14.4634C101.986 14.4634 101.242 14.8287 101.242 15.6954C101.242 16.3366 101.626 16.6501 102.158 16.6501C102.837 16.6501 103.469 16.1229 103.469 15.4065V14.4634ZM111.25 17.5064L111.187 16.5257H111.15C110.767 17.2667 110.123 17.645 109.222 17.645C107.774 17.645 106.702 16.3496 106.702 14.5269C106.702 12.6161 107.814 11.2701 109.332 11.2701C110.135 11.2701 110.705 11.5461 111.026 12.1005H111.052V8.59375H112.388V15.8599C112.388 16.4506 112.402 17.0038 112.438 17.5064H111.25ZM111.052 13.9115C111.052 13.0565 110.496 12.3272 109.646 12.3272C108.657 12.3272 108.052 13.2198 108.052 14.4764C108.052 15.7083 108.68 16.5516 109.62 16.5516C110.459 16.5516 111.052 15.8094 111.052 14.9298V13.9115ZM120.858 17.645C119.105 17.645 117.967 16.312 117.967 14.5023C117.967 12.6161 119.129 11.2714 120.958 11.2714C122.688 11.2714 123.85 12.541 123.85 14.4025C123.851 16.312 122.653 17.645 120.858 17.645ZM120.908 12.2637C119.945 12.2637 119.328 13.1809 119.328 14.4634C119.328 15.7213 119.958 16.6384 120.895 16.6384C121.835 16.6384 122.464 15.6578 122.464 14.4375C122.467 13.1939 121.849 12.2637 120.908 12.2637ZM131.027 17.5064H129.691V13.9983C129.691 12.9179 129.284 12.3764 128.48 12.3764C127.689 12.3764 127.147 13.0682 127.147 13.8727V17.5064H125.811V13.1433C125.811 12.6031 125.798 12.0241 125.761 11.3958H126.935L126.998 12.3389H127.035C127.393 11.686 128.122 11.2701 128.937 11.2701C130.198 11.2701 131.027 12.2508 131.027 13.8468V17.5064ZM140.007 12.4153H138.538V15.3819C138.538 16.1371 138.796 16.5141 139.315 16.5141C139.551 16.5141 139.748 16.4882 139.907 16.4506L139.944 17.4818C139.686 17.5828 139.339 17.6333 138.909 17.6333C137.857 17.6333 137.228 17.0426 137.228 15.4959V12.4153H136.352V11.3971H137.228V10.2778L138.538 9.87494V11.3958H140.007V12.4153ZM147.072 17.5064H145.739V14.0242C145.739 12.9309 145.333 12.3777 144.528 12.3777C143.836 12.3777 143.192 12.8558 143.192 13.8234V17.5064H141.858V8.59375H143.192V12.2637H143.219C143.639 11.5979 144.248 11.2701 145.024 11.2701C146.295 11.2701 147.072 12.2754 147.072 13.8727V17.5064ZM154.311 14.7782H150.306C150.331 15.935 151.084 16.5879 152.198 16.5879C152.79 16.5879 153.335 16.4869 153.817 16.299L154.024 17.2421C153.456 17.4934 152.788 17.6191 152.01 17.6191C150.131 17.6191 149.019 16.4117 149.019 14.5398C149.019 12.6666 150.158 11.2585 151.859 11.2585C153.394 11.2585 154.357 12.4153 154.357 14.1629C154.365 14.3691 154.35 14.5756 154.311 14.7782ZM153.087 13.8105C153.087 12.8674 152.62 12.2016 151.766 12.2016C151 12.2016 150.394 12.8804 150.307 13.8105H153.087Z" fill="white"/>
</g>
<g clip-path="url(#clip1_0_211)">
<path d="M165.63 123.891H6.37037C2.80296 123.891 0 121.043 0 117.417V78.5753C0 74.95 2.80296 72.1016 6.37037 72.1016H165.63C169.197 72.1016 172 74.95 172 78.5753V117.417C172 121.043 169.197 123.891 165.63 123.891Z" fill="#282828"/>
<path d="M165.63 73.1374C168.56 73.1374 170.981 75.5974 170.981 78.5753V117.417C170.981 120.395 168.56 122.855 165.63 122.855H6.37037C3.44 122.855 1.01926 120.395 1.01926 117.417V78.5753C1.01926 75.5974 3.44 73.1374 6.37037 73.1374H165.63ZM165.63 72.1016H6.37037C2.80296 72.1016 0 75.0795 0 78.5753V117.417C0 121.043 2.80296 123.891 6.37037 123.891H165.63C169.197 123.891 172 121.043 172 117.417V78.5753C172 75.0795 169.197 72.1016 165.63 72.1016Z" fill="#A6A6A6"/>
<path d="M60.3915 85.3117C60.3915 86.3475 60.1367 87.2538 59.4997 87.9012C58.7352 88.678 57.8434 89.0665 56.6967 89.0665C55.55 89.0665 54.6582 88.678 53.8937 87.9012C53.1293 87.1243 52.7471 86.218 52.7471 85.0528C52.7471 83.8875 53.1293 82.9812 53.8937 82.2043C54.6582 81.4275 55.55 81.0391 56.6967 81.0391C57.2063 81.0391 57.716 81.1685 58.2256 81.4275C58.7352 81.6864 59.1174 81.9454 59.3723 82.3338L58.7352 82.9812C58.2256 82.3338 57.5885 82.0749 56.6967 82.0749C55.9323 82.0749 55.1678 82.3338 54.6582 82.9812C54.0211 83.4991 53.7663 84.2759 53.7663 85.1822C53.7663 86.0885 54.0211 86.8654 54.6582 87.3833C55.2952 87.9012 55.9323 88.2896 56.6967 88.2896C57.5885 88.2896 58.2256 88.0307 58.8626 87.3833C59.2448 86.9949 59.4997 86.477 59.4997 85.8296H56.6967V84.7938H60.3915V85.3117ZM66.2523 82.0749H62.8123V84.5349H65.9974V85.4412H62.8123V87.9012H66.2523V88.937H61.793V81.1685H66.2523V82.0749ZM70.4567 88.937H69.4374V82.0749H67.2715V81.1685H72.6226V82.0749H70.4567V88.937ZM76.3174 88.937V81.1685H77.3367V88.937H76.3174ZM81.6685 88.937H80.6493V82.0749H78.4834V81.1685H83.7071V82.0749H81.5411V88.937H81.6685ZM93.7723 87.9012C93.0078 88.678 92.116 89.0665 90.9693 89.0665C89.8226 89.0665 88.9308 88.678 88.1663 87.9012C87.4019 87.1243 87.0197 86.218 87.0197 85.0528C87.0197 83.8875 87.4019 82.9812 88.1663 82.2043C88.9308 81.4275 89.8226 81.0391 90.9693 81.0391C92.116 81.0391 93.0078 81.4275 93.7723 82.2043C94.5367 82.9812 94.9189 83.8875 94.9189 85.0528C94.9189 86.218 94.5367 87.1243 93.7723 87.9012ZM88.9308 87.2538C89.4404 87.7717 90.2048 88.1601 90.9693 88.1601C91.7337 88.1601 92.4982 87.9012 93.0078 87.2538C93.5174 86.7359 93.8997 85.9591 93.8997 85.0528C93.8997 84.1464 93.6448 83.3696 93.0078 82.8517C92.4982 82.3338 91.7337 81.9454 90.9693 81.9454C90.2048 81.9454 89.4404 82.2043 88.9308 82.8517C88.4211 83.3696 88.0389 84.1464 88.0389 85.0528C88.0389 85.9591 88.2937 86.7359 88.9308 87.2538ZM96.3204 88.937V81.1685H97.4671L101.162 87.2538V81.1685H102.181V88.937H101.162L97.2123 82.5928V88.937H96.3204Z" fill="white" stroke="white" stroke-width="1.18519" stroke-miterlimit="10"/>
<path d="M86.7643 100.327C83.7065 100.327 81.2857 102.658 81.2857 105.895C81.2857 109.002 83.7065 111.462 86.7643 111.462C89.822 111.462 92.2428 109.132 92.2428 105.895C92.2428 102.529 89.822 100.327 86.7643 100.327ZM86.7643 109.132C85.108 109.132 83.7065 107.707 83.7065 105.765C83.7065 103.823 85.108 102.399 86.7643 102.399C88.4206 102.399 89.822 103.694 89.822 105.765C89.822 107.707 88.4206 109.132 86.7643 109.132ZM74.9154 100.327C71.8576 100.327 69.4369 102.658 69.4369 105.895C69.4369 109.002 71.8576 111.462 74.9154 111.462C77.9731 111.462 80.3939 109.132 80.3939 105.895C80.3939 102.529 77.9731 100.327 74.9154 100.327ZM74.9154 109.132C73.2591 109.132 71.8576 107.707 71.8576 105.765C71.8576 103.823 73.2591 102.399 74.9154 102.399C76.5717 102.399 77.9731 103.694 77.9731 105.765C77.9731 107.707 76.5717 109.132 74.9154 109.132ZM60.7731 102.011V104.341H66.2517C66.1243 105.636 65.6146 106.672 64.9776 107.319C64.2131 108.096 62.9391 109.002 60.7731 109.002C57.3331 109.002 54.785 106.283 54.785 102.787C54.785 99.2917 57.4606 96.5727 60.7731 96.5727C62.5569 96.5727 63.9583 97.3496 64.9776 98.2559L66.6339 96.5727C65.2324 95.278 63.4487 94.2422 60.9006 94.2422C56.3139 94.2422 52.3643 98.1264 52.3643 102.787C52.3643 107.449 56.3139 111.333 60.9006 111.333C63.4487 111.333 65.2324 110.556 66.7613 108.873C68.2902 107.319 68.7998 105.118 68.7998 103.435C68.7998 102.917 68.7998 102.399 68.6724 102.011H60.7731ZM118.616 103.823C118.106 102.529 116.832 100.327 114.029 100.327C111.226 100.327 108.933 102.529 108.933 105.895C108.933 109.002 111.226 111.462 114.284 111.462C116.705 111.462 118.234 109.909 118.744 109.002L116.96 107.707C116.323 108.614 115.558 109.261 114.284 109.261C113.01 109.261 112.246 108.743 111.609 107.578L118.871 104.471L118.616 103.823ZM111.226 105.636C111.226 103.564 112.883 102.399 114.029 102.399C114.921 102.399 115.813 102.917 116.068 103.564L111.226 105.636ZM105.238 110.944H107.659V94.7601H105.238V110.944ZM101.416 101.493C100.779 100.845 99.7598 100.198 98.4857 100.198C95.8102 100.198 93.262 102.658 93.262 105.765C93.262 108.873 95.6828 111.203 98.4857 111.203C99.7598 111.203 100.779 110.556 101.289 109.909H101.416V110.685C101.416 112.757 100.269 113.922 98.4857 113.922C97.0843 113.922 96.065 112.886 95.8102 111.98L93.7717 112.886C94.4087 114.311 95.9376 116.123 98.6131 116.123C101.416 116.123 103.709 114.44 103.709 110.426V100.586H101.416V101.493ZM98.6131 109.132C96.9569 109.132 95.5554 107.707 95.5554 105.765C95.5554 103.823 96.9569 102.399 98.6131 102.399C100.269 102.399 101.544 103.823 101.544 105.765C101.544 107.707 100.269 109.132 98.6131 109.132ZM129.701 94.7601H123.967V110.944H126.388V104.859H129.701C132.376 104.859 134.924 102.917 134.924 99.8096C134.924 96.7022 132.376 94.7601 129.701 94.7601ZM129.828 102.529H126.388V96.9611H129.828C131.612 96.9611 132.631 98.5148 132.631 99.6801C132.504 101.104 131.484 102.529 129.828 102.529ZM144.48 100.198C142.696 100.198 140.912 100.975 140.275 102.658L142.441 103.564C142.951 102.658 143.715 102.399 144.607 102.399C145.881 102.399 147.028 103.176 147.155 104.471V104.6C146.773 104.341 145.754 103.953 144.735 103.953C142.441 103.953 140.148 105.247 140.148 107.578C140.148 109.779 142.059 111.203 144.098 111.203C145.754 111.203 146.518 110.426 147.155 109.65H147.283V110.944H149.576V104.73C149.321 101.881 147.155 100.198 144.48 100.198ZM144.225 109.132C143.461 109.132 142.314 108.743 142.314 107.707C142.314 106.413 143.715 106.024 144.862 106.024C145.881 106.024 146.391 106.283 147.028 106.542C146.773 108.096 145.499 109.132 144.225 109.132ZM157.603 100.586L154.927 107.578H154.8L151.997 100.586H149.449L153.653 110.426L151.232 115.864H153.653L160.151 100.586H157.603ZM136.198 110.944H138.619V94.7601H136.198V110.944Z" fill="white"/>
<path d="M13.2508 81.8125C12.8686 82.2009 12.7412 82.8483 12.7412 83.6251V112.239C12.7412 113.016 12.996 113.663 13.3782 114.052L13.5057 114.181L29.3042 98.1262V97.8673L13.2508 81.8125Z" fill="url(#paint1_linear_0_211)"/>
<path d="M34.4005 103.568L29.1768 98.2594V97.8709L34.4005 92.5625L34.5279 92.692L40.7708 96.3172C42.5545 97.353 42.5545 99.0362 40.7708 100.072L34.4005 103.568Z" fill="url(#paint2_linear_0_211)"/>
<path d="M34.528 103.438L29.1769 98L13.251 114.184C13.888 114.832 14.7799 114.832 15.9265 114.314L34.528 103.438Z" fill="url(#paint3_linear_0_211)"/>
<path d="M34.528 92.5626L15.9265 81.8162C14.7799 81.1689 13.888 81.2983 13.251 81.9457L29.1769 98.0005L34.528 92.5626Z" fill="url(#paint4_linear_0_211)"/>
<path opacity="0.2" d="M34.4006 103.312L15.9265 113.929C14.9073 114.577 14.0154 114.447 13.3784 113.929L13.251 114.059L13.3784 114.188C14.0154 114.706 14.9073 114.836 15.9265 114.188L34.4006 103.312Z" fill="#282828"/>
<path opacity="0.12" d="M13.2508 113.925C12.8686 113.537 12.7412 112.89 12.7412 112.113V112.242C12.7412 113.019 12.996 113.666 13.3782 114.055V113.925H13.2508ZM40.7708 99.6832L34.4005 103.308L34.5279 103.438L40.7708 99.8126C41.6627 99.2947 42.0449 98.6474 42.0449 98C42.0449 98.6474 41.5353 99.1653 40.7708 99.6832Z" fill="#282828"/>
<path opacity="0.25" d="M15.9264 81.9456L40.7708 96.3173C41.5353 96.8352 42.0449 97.3531 42.0449 98.0004C42.0449 97.3531 41.6627 96.7057 40.7708 96.1878L15.9264 81.8162C14.1427 80.7804 12.7412 81.5572 12.7412 83.6288V83.7583C12.7412 81.8162 14.1427 80.9099 15.9264 81.9456Z" fill="white"/>
</g>
<defs>
<linearGradient id="paint0_linear_0_211" x1="126.026" y1="52.0425" x2="126.026" y2="-134.786" gradientUnits="userSpaceOnUse">
<stop stop-color="#1A1A1A" stop-opacity="0.1"/>
<stop offset="0.123" stop-color="#212121" stop-opacity="0.151"/>
<stop offset="0.308" stop-color="#353535" stop-opacity="0.227"/>
<stop offset="0.532" stop-color="#575757" stop-opacity="0.318"/>
<stop offset="0.783" stop-color="#858585" stop-opacity="0.421"/>
<stop offset="1" stop-color="#B3B3B3" stop-opacity="0.51"/>
</linearGradient>
<linearGradient id="paint1_linear_0_211" x1="27.7753" y1="83.3791" x2="6.04849" y2="104.758" gradientUnits="userSpaceOnUse">
<stop stop-color="#00A0FF"/>
<stop offset="0.007" stop-color="#00A1FF"/>
<stop offset="0.26" stop-color="#00BEFF"/>
<stop offset="0.512" stop-color="#00D2FF"/>
<stop offset="0.76" stop-color="#00DFFF"/>
<stop offset="1" stop-color="#00E3FF"/>
</linearGradient>
<linearGradient id="paint2_linear_0_211" x1="43.1075" y1="98.0017" x2="12.2787" y2="98.0017" gradientUnits="userSpaceOnUse">
<stop stop-color="#FFE000"/>
<stop offset="0.409" stop-color="#FFBD00"/>
<stop offset="0.775" stop-color="#FFA500"/>
<stop offset="1" stop-color="#FF9C00"/>
</linearGradient>
<linearGradient id="paint3_linear_0_211" x1="31.632" y1="100.973" x2="2.17017" y2="129.964" gradientUnits="userSpaceOnUse">
<stop stop-color="#FF3A44"/>
<stop offset="1" stop-color="#C31162"/>
</linearGradient>
<linearGradient id="paint4_linear_0_211" x1="9.29752" y1="72.3336" x2="22.4543" y2="85.2803" gradientUnits="userSpaceOnUse">
<stop stop-color="#32A071"/>
<stop offset="0.069" stop-color="#2DA771"/>
<stop offset="0.476" stop-color="#15CF74"/>
<stop offset="0.801" stop-color="#06E775"/>
<stop offset="1" stop-color="#00F076"/>
</linearGradient>
<clipPath id="clip0_0_211">
<rect width="172" height="52" fill="white"/>
</clipPath>
<clipPath id="clip1_0_211">
<rect width="172" height="52" fill="white" transform="translate(0 72)"/>
</clipPath>
</defs>
</svg>
