<svg width="148" height="148" viewBox="0 0 148 148" fill="none" xmlns="http://www.w3.org/2000/svg">
<g opacity="0.1" clip-path="url(#clip0_4697_16088)">
<path d="M85.9102 26.0156C88.3047 26.0156 90.2461 24.0743 90.2461 21.6797C90.2461 19.2851 88.3047 17.3438 85.9102 17.3438H62.207C59.8124 17.3438 57.8711 19.2851 57.8711 21.6797C57.8711 24.0743 59.8124 26.0156 62.207 26.0156H85.9102ZM103.335 75.2025H118.662C121.057 75.2025 122.998 73.2611 122.998 70.8666C122.998 68.472 121.057 66.5306 118.662 66.5306H103.335C100.94 66.5306 98.9989 68.472 98.9989 70.8666C98.9989 73.2611 100.94 75.2025 103.335 75.2025Z" fill="#2D2C65"/>
<path d="M148 65.0853C148 57.1205 142.112 50.5062 134.461 49.3629L134.474 15.8984C134.474 7.13204 127.342 0 118.576 0H29.5446C20.7782 0 13.6461 7.13204 13.6461 15.8984V81.5243L2.0105 97.1542C-0.287838 100.242 -0.642518 104.297 1.08521 107.736C2.81294 111.176 6.27706 113.312 10.1259 113.312H74.0001V132.102C74.0001 140.868 81.1321 148 89.8985 148H132.102C140.868 148 148 140.868 148 132.102V65.0853ZM132.102 139.328H89.8985C85.9138 139.328 82.6719 136.086 82.6719 132.102V130.656H139.328V132.102C139.328 136.086 136.086 139.328 132.102 139.328ZM82.6719 65.0853C82.6719 61.1006 85.9138 57.8587 89.8985 57.8587H132.102C136.086 57.8587 139.328 61.1006 139.328 65.0853V121.984H82.6719V65.0853ZM22.318 15.8984C22.318 11.9137 25.5598 8.67188 29.5446 8.67188H118.576C122.561 8.67188 125.802 11.9137 125.802 15.8984L125.789 49.1869H89.8985C81.1321 49.1869 74.0001 56.3189 74.0001 65.0853V78.625H22.318V15.8984ZM10.1259 104.641C9.35008 104.641 8.98384 104.141 8.8344 103.844C8.68466 103.547 8.50313 102.954 8.9665 102.332L20.1596 87.2969H74.0001V104.641H10.1259Z" fill="#2D2C65"/>
</g>
<defs>
<clipPath id="clip0_4697_16088">
<rect width="148" height="148" fill="white"/>
</clipPath>
</defs>
</svg>
