<svg width="148" height="148" viewBox="0 0 148 148" fill="none" xmlns="http://www.w3.org/2000/svg">
<g opacity="0.1" clip-path="url(#clip0_4697_16076)">
<path d="M84.9786 126.32H12.7188V4.33594H109.266V91.9248" stroke="#2D2C65" stroke-width="8.67188" stroke-miterlimit="10" stroke-linecap="round" stroke-linejoin="round"/>
<path d="M30.0625 25.293L35.5547 30.7852L44.6602 21.6797M30.0625 51.3086L35.5547 56.8008L44.6602 47.6953M30.0625 77.3242L35.5547 82.8164L44.6602 73.7109M30.0625 103.34L35.5547 108.832L44.6602 99.7266M91.9219 26.2324H61.5703M91.9219 52.248H61.5703M91.9219 78.2637H61.5703" stroke="#2D2C65" stroke-width="8.67188" stroke-miterlimit="10" stroke-linecap="round" stroke-linejoin="round"/>
<path d="M109.41 143.664C123.698 143.664 135.281 132.081 135.281 117.793C135.281 103.505 123.698 91.9219 109.41 91.9219C95.1219 91.9219 83.5391 103.505 83.5391 117.793C83.5391 132.081 95.1219 143.664 109.41 143.664Z" stroke="#2D2C65" stroke-width="8.67188" stroke-miterlimit="10" stroke-linecap="round" stroke-linejoin="round"/>
<path d="M109.274 109.266V117.646L103.25 123.67" stroke="#2D2C65" stroke-width="8.67188" stroke-miterlimit="10" stroke-linecap="round" stroke-linejoin="round"/>
</g>
<defs>
<clipPath id="clip0_4697_16076">
<rect width="148" height="148" fill="white"/>
</clipPath>
</defs>
</svg>
