<svg width="148" height="148" viewBox="0 0 148 148" fill="none" xmlns="http://www.w3.org/2000/svg">
<g opacity="0.1" clip-path="url(#clip0_4697_16098)">
<path d="M74.2974 121.984H39.6099C37.2153 121.984 35.2739 120.043 35.2739 117.648C35.2739 115.254 37.2153 113.312 39.6099 113.312H74.2974C76.692 113.312 78.6333 115.254 78.6333 117.648C78.6333 120.043 76.692 121.984 74.2974 121.984Z" fill="#2D2C65"/>
<path d="M136.706 45.0784C136.706 41.6039 135.353 38.3375 132.896 35.8805C127.824 30.8083 119.571 30.8089 114.5 35.8805L101.771 48.6087V13.0078C101.771 5.8353 95.9361 0 88.7636 0H24.2812C17.1087 0 11.2734 5.8353 11.2734 13.0078V134.992C11.2734 142.165 17.1087 148 24.2812 148H88.7636C95.9361 148 101.771 142.165 101.771 134.992V85.4003L132.896 54.2764C135.352 51.8197 136.706 48.553 136.706 45.0784ZM84.5639 90.3442L75.3659 93.41L78.4317 84.212L111.434 51.2103L117.566 57.3422L84.5639 90.3442ZM37.2891 8.67188H75.7558V13.0078C75.7558 15.3986 73.8107 17.3438 71.4199 17.3438H41.625C39.2342 17.3438 37.2891 15.3986 37.2891 13.0078V8.67188ZM93.0996 134.992C93.0996 137.383 91.1545 139.328 88.7636 139.328H24.2812C21.8904 139.328 19.9453 137.383 19.9453 134.992V13.0078C19.9453 10.617 21.8904 8.67188 24.2812 8.67188H28.6172V13.0078C28.6172 20.1803 34.4525 26.0156 41.625 26.0156H71.4199C78.5924 26.0156 84.4277 20.1803 84.4277 13.0078V8.67188H88.7636C91.1545 8.67188 93.0996 10.617 93.0996 13.0078V57.2809L71.5763 78.8042C71.1002 79.2801 70.7415 79.8604 70.5287 80.499L64.3968 98.8949C64.1422 99.6589 64.1052 100.479 64.2902 101.262C64.4752 102.046 64.8748 102.763 65.4442 103.332C66.0136 103.902 66.7304 104.301 67.5141 104.486C68.2978 104.671 69.1176 104.634 69.8815 104.38L88.2771 98.2474C88.9158 98.0346 89.496 97.676 89.9719 97.1999L93.0996 94.0722V134.992ZM126.764 48.1445L123.698 51.2106L117.566 45.0787L120.632 42.0126C122.323 40.3225 125.073 40.3219 126.764 42.0126C127.168 42.4143 127.488 42.8922 127.706 43.4185C127.924 43.9447 128.036 44.5091 128.034 45.0787C128.036 45.6483 127.924 46.2126 127.706 46.7388C127.488 47.265 127.168 47.7428 126.764 48.1445Z" fill="#2D2C65"/>
</g>
<defs>
<clipPath id="clip0_4697_16098">
<rect width="148" height="148" fill="white"/>
</clipPath>
</defs>
</svg>
