<svg width="48" height="48" viewBox="0 0 48 48" fill="none" xmlns="http://www.w3.org/2000/svg">
<g clip-path="url(#clip0_4697_15997)">
<path d="M27.8633 8.4375C28.6399 8.4375 29.2695 7.80787 29.2695 7.03125C29.2695 6.25462 28.6399 5.625 27.8633 5.625H20.1758C19.3992 5.625 18.7695 6.25462 18.7695 7.03125C18.7695 7.80787 19.3992 8.4375 20.1758 8.4375H27.8633ZM33.5145 24.39H38.4855C39.2622 24.39 39.8918 23.7604 39.8918 22.9837C39.8918 22.2071 39.2622 21.5775 38.4855 21.5775H33.5145C32.7379 21.5775 32.1083 22.2071 32.1083 22.9837C32.1083 23.7604 32.7379 24.39 33.5145 24.39Z" fill="#2D2C65"/>
<path d="M48 21.1087C48 18.5256 46.0905 16.3804 43.609 16.0096L43.6133 5.15625C43.6133 2.31309 41.3002 0 38.457 0H9.58202C6.73887 0 4.42577 2.31309 4.42577 5.15625V26.4403L0.652053 31.5095C-0.0933528 32.5109 -0.208384 33.8259 0.35196 34.9415C0.912303 36.057 2.0358 36.75 3.28408 36.75H24V42.8438C24 45.6869 26.3131 48 29.1563 48H42.8438C45.6869 48 48 45.6869 48 42.8438V21.1087ZM42.8438 45.1875H29.1563C27.8639 45.1875 26.8125 44.1361 26.8125 42.8438V42.375H45.1875V42.8438C45.1875 44.1361 44.1361 45.1875 42.8438 45.1875ZM26.8125 21.1087C26.8125 19.8164 27.8639 18.765 29.1563 18.765H42.8438C44.1361 18.765 45.1875 19.8164 45.1875 21.1087V39.5625H26.8125V21.1087ZM7.23827 5.15625C7.23827 3.86391 8.28968 2.8125 9.58202 2.8125H38.457C39.7494 2.8125 40.8008 3.86391 40.8008 5.15625L40.7965 15.9525H29.1563C26.3131 15.9525 24 18.2656 24 21.1087V25.5H7.23827V5.15625ZM3.28408 33.9375C3.03246 33.9375 2.91368 33.7756 2.86521 33.6791C2.81665 33.5827 2.75777 33.3906 2.90805 33.1888L6.53824 28.3125H24V33.9375H3.28408Z" fill="#2D2C65"/>
</g>
<defs>
<clipPath id="clip0_4697_15997">
<rect width="48" height="48" fill="white"/>
</clipPath>
</defs>
</svg>
