<svg width="80" height="80" viewBox="0 0 80 80" fill="none" xmlns="http://www.w3.org/2000/svg">
<rect width="80" height="80" rx="40" fill="#2D2C65"/>
<path d="M39.998 56.9474C37.6969 56.9474 35.6514 56.5533 33.8616 55.7649C32.0825 54.9766 30.6763 53.8793 29.6429 52.473C28.6095 51.0668 28.0609 49.4421 27.9969 47.5991H34.0055C34.0587 48.4833 34.3517 49.2557 34.8844 49.9162C35.417 50.5661 36.1255 51.0721 37.0097 51.4343C37.894 51.7965 38.8847 51.9776 39.982 51.9776C41.1539 51.9776 42.1926 51.7752 43.0981 51.3704C44.0037 50.9549 44.7121 50.3796 45.2235 49.6445C45.7349 48.9094 45.9852 48.0625 45.9746 47.1037C45.9852 46.1129 45.7295 45.2393 45.2075 44.483C44.6855 43.7266 43.9291 43.1353 42.9383 42.7092C41.9582 42.283 40.7757 42.07 39.3908 42.07H36.4984V37.4996H39.3908C40.5307 37.4996 41.5268 37.3026 42.379 36.9084C43.242 36.5142 43.9185 35.9602 44.4085 35.2464C44.8986 34.522 45.1383 33.6857 45.1276 32.7376C45.1383 31.8107 44.9305 31.0064 44.5044 30.3246C44.0889 29.6321 43.4976 29.0941 42.7306 28.7106C41.9742 28.3271 41.0847 28.1353 40.0619 28.1353C39.0605 28.1353 38.1337 28.3164 37.2814 28.6786C36.4291 29.0408 35.742 29.5575 35.2199 30.2287C34.6979 30.8892 34.4209 31.6776 34.389 32.5938H28.6841C28.7267 30.7614 29.254 29.1527 30.2661 27.7678C31.2888 26.3722 32.6525 25.2855 34.357 24.5078C36.0616 23.7195 37.9739 23.3253 40.0939 23.3253C42.2778 23.3253 44.1741 23.7354 45.7828 24.5558C47.4021 25.3654 48.6539 26.4574 49.5381 27.8317C50.4224 29.206 50.8645 30.7241 50.8645 32.386C50.8751 34.229 50.3318 35.7738 49.2345 37.0202C48.1479 38.2667 46.7203 39.0817 44.9518 39.4652V39.7209C47.253 40.0405 49.0161 40.8928 50.2413 42.2777C51.4771 43.652 52.0896 45.3619 52.079 47.4073C52.079 49.2397 51.557 50.8803 50.5129 52.3292C49.4795 53.7674 48.052 54.8967 46.2302 55.717C44.4192 56.5373 42.3418 56.9474 39.998 56.9474Z" fill="white"/>
</svg>
