<svg width="364" height="52" viewBox="0 0 364 52" fill="none" xmlns="http://www.w3.org/2000/svg">
<g clip-path="url(#clip0_4639_30943)">
<path d="M170.691 45.7925C170.691 46.4445 170.565 47.0901 170.319 47.6924C170.074 48.2947 169.714 48.8419 169.261 49.3027C168.807 49.7635 168.269 50.1288 167.677 50.3779C167.084 50.6269 166.449 50.7547 165.808 50.754H6.02243C4.72735 50.7554 3.48477 50.2335 2.56794 49.3031C1.65111 48.3726 1.13511 47.1099 1.13342 45.7925V6.22583C1.13511 4.90786 1.6509 3.64444 2.56755 2.71298C3.4842 1.78151 4.72677 1.25815 6.02243 1.25781H165.807C166.449 1.25781 167.084 1.38632 167.676 1.63601C168.268 1.88569 168.807 2.25165 169.26 2.71299C169.714 3.17433 170.073 3.72201 170.319 4.32475C170.564 4.92749 170.69 5.57348 170.69 6.22583L170.691 45.7925Z" fill="white"/>
<path d="M165.809 51.905H6.02243C4.42705 51.9046 2.89696 51.2605 1.7679 50.114C0.638839 48.9674 0.00303557 47.4121 0 45.7892L0 6.22382C0.00236014 4.60016 0.637744 3.04375 1.76677 1.89601C2.89579 0.748271 4.42626 0.102933 6.02243 0.101562L165.807 0.101563C167.403 0.103617 168.933 0.749174 170.062 1.89676C171.191 3.04435 171.827 4.60037 171.83 6.22382V45.7892C171.832 49.1625 169.126 51.905 165.809 51.905Z" fill="#A6A6A6"/>
<path d="M170.691 45.7925C170.691 46.4445 170.565 47.0901 170.319 47.6924C170.074 48.2947 169.714 48.8419 169.261 49.3027C168.807 49.7635 168.269 50.1288 167.677 50.3779C167.084 50.6269 166.449 50.7547 165.808 50.754H6.02243C4.72735 50.7554 3.48477 50.2335 2.56794 49.3031C1.65111 48.3726 1.13511 47.1099 1.13342 45.7925V6.22583C1.13511 4.90786 1.6509 3.64444 2.56755 2.71298C3.4842 1.78151 4.72677 1.25815 6.02243 1.25781H165.807C166.449 1.25781 167.084 1.38632 167.676 1.63601C168.268 1.88569 168.807 2.25165 169.26 2.71299C169.714 3.17433 170.073 3.72201 170.319 4.32475C170.564 4.92749 170.69 5.57348 170.69 6.22583L170.691 45.7925Z" fill="#282828"/>
<path d="M38.3683 25.7315C38.3314 21.5563 41.7291 19.525 41.8845 19.4305C39.9602 16.5766 36.9777 16.1867 35.9296 16.1556C33.4246 15.8874 30.9947 17.6803 29.7187 17.6803C28.4171 17.6803 26.4521 16.1815 24.3343 16.2256C21.6089 16.2683 19.0594 17.8734 17.6611 20.3658C14.7753 25.4478 16.9275 32.916 19.6923 37.0239C21.0753 39.037 22.6914 41.282 24.8067 41.203C26.8762 41.1175 27.6492 39.8622 30.1466 39.8622C32.621 39.8622 33.3469 41.203 35.5042 41.1524C37.7252 41.1175 39.1235 39.1316 40.4582 37.1016C42.0564 34.797 42.6983 32.5248 42.7237 32.4082C42.6728 32.3901 38.4116 30.7345 38.3683 25.7315ZM34.2931 13.4533C35.4062 12.0374 36.1677 10.1111 35.9563 8.15625C34.3453 8.22879 32.3306 9.28976 31.1705 10.6746C30.144 11.8949 29.2271 13.8951 29.464 15.776C31.2736 15.9134 33.1317 14.8472 34.2931 13.4533Z" fill="white"/>
<path d="M165.808 0.101563H80.2222L113.745 51.905H165.808C167.404 51.9036 168.934 51.2586 170.063 50.1115C171.192 48.9643 171.828 47.4085 171.831 45.7853V6.22382C171.828 4.60027 171.193 3.04405 170.064 1.89639C168.935 0.748723 167.404 0.103275 165.808 0.101563Z" fill="url(#paint0_linear_4639_30943)"/>
<path d="M68.3429 40.9168H65.4508L63.8665 35.8529H58.3599L56.8508 40.9168H54.035L59.492 23.6771H62.8617L68.3429 40.9168ZM63.389 33.7284L61.9563 29.2267C61.8047 28.7669 61.5195 27.6839 61.1017 25.9791H61.0508C60.8827 26.7123 60.614 27.7953 60.2459 29.2267L58.8374 33.7284H63.389ZM82.349 34.5484C82.349 36.6626 81.7848 38.3337 80.6552 39.5605C79.6441 40.6525 78.3871 41.1979 76.8882 41.1979C75.2695 41.1979 74.1056 40.6111 73.3988 39.4348V45.9574H70.6836V32.5716C70.6836 31.2438 70.6492 29.8822 70.583 28.4858H72.9709L73.1224 30.4561H73.1733C74.0788 28.9715 75.4529 28.2293 77.297 28.2293C78.7386 28.2293 79.9421 28.8083 80.9048 29.9677C81.8663 31.1298 82.349 32.6558 82.349 34.5484ZM79.5829 34.6495C79.5829 33.4395 79.3155 32.442 78.7781 31.6557C78.191 30.8383 77.4027 30.4289 76.4144 30.4289C75.7446 30.4289 75.1358 30.6569 74.592 31.1064C74.047 31.5598 73.6904 32.1519 73.5236 32.8851C73.4491 33.1593 73.4068 33.4415 73.3975 33.7258V35.7998C73.3975 36.7027 73.67 37.4658 74.2151 38.0902C74.7601 38.712 75.4682 39.0242 76.3393 39.0242C77.3619 39.0242 78.1579 38.6213 78.7271 37.822C79.2977 37.0201 79.5829 35.963 79.5829 34.6495ZM96.4047 34.5484C96.4047 36.6626 95.8406 38.3337 94.711 39.5605C93.6985 40.6525 92.4428 41.1979 90.9426 41.1979C89.324 41.1979 88.16 40.6111 87.4532 39.4348V45.9574H84.7381V32.5716C84.7381 31.2438 84.7037 29.8822 84.6375 28.4858H87.0253L87.1769 30.4561H87.2278C88.132 28.9715 89.5061 28.2293 91.3514 28.2293C92.7918 28.2293 93.9952 28.8083 94.9606 29.9677C95.9208 31.1298 96.4047 32.6558 96.4047 34.5484ZM93.6374 34.6495C93.6374 33.4395 93.3687 32.442 92.8312 31.6557C92.2442 30.8383 91.4584 30.4289 90.4702 30.4289C89.8003 30.4289 89.1916 30.6569 88.6452 31.1064C88.1002 31.5598 87.7448 32.1519 87.578 32.8851C87.4952 33.2271 87.4507 33.5056 87.4507 33.7258V35.7998C87.4507 36.7027 87.7245 37.4658 88.267 38.0902C88.812 38.7107 89.5201 39.0242 90.3938 39.0242C91.4177 39.0242 92.2136 38.6213 92.7816 37.822C93.3521 37.0201 93.6374 35.963 93.6374 34.6495ZM112.12 36.0809C112.12 37.5487 111.616 38.7418 110.613 39.6628C109.51 40.6681 107.971 41.172 105.997 41.172C104.173 41.172 102.711 40.8145 101.608 40.0981L102.236 37.7961C103.427 38.5138 104.735 38.8713 106.159 38.8713C107.182 38.8713 107.978 38.6355 108.546 38.1679C109.116 37.6989 109.403 37.0719 109.403 36.2895C109.403 35.5887 109.165 35.0018 108.698 34.5238C108.228 34.0471 107.451 33.6027 106.36 33.1947C103.392 32.0689 101.908 30.4224 101.908 28.2565C101.908 26.8418 102.432 25.6837 103.479 24.7782C104.526 23.874 105.914 23.4219 107.641 23.4219C109.183 23.4219 110.468 23.6952 111.488 24.2406L110.807 26.4921C109.847 25.9635 108.763 25.6993 107.55 25.6993C106.593 25.6993 105.841 25.9389 105.304 26.4156C104.852 26.8418 104.623 27.3613 104.623 27.9779C104.623 28.6581 104.884 29.2229 105.403 29.6659C105.854 30.074 106.677 30.5183 107.866 30.995C109.326 31.5935 110.398 32.2905 111.084 33.0911C111.776 33.8916 112.12 34.8904 112.12 36.0809ZM121.12 30.5585H118.127V36.5939C118.127 38.129 118.654 38.8946 119.711 38.8946C120.196 38.8946 120.599 38.8532 120.917 38.7664L120.992 40.8637C120.458 41.0671 119.753 41.1694 118.881 41.1694C117.809 41.1694 116.971 40.8365 116.366 40.1706C115.763 39.5048 115.46 38.3894 115.46 36.8193V30.5533H113.677V28.4806H115.46V26.2045L118.127 25.3858V28.4806H121.12V30.5585ZM134.596 34.5989C134.596 36.5097 134.059 38.0785 132.986 39.3053C131.864 40.5683 130.372 41.1979 128.511 41.1979C126.716 41.1979 125.288 40.593 124.223 39.3843C123.159 38.1731 122.626 36.647 122.626 34.8062C122.626 32.8799 123.176 31.302 124.273 30.0753C125.372 28.8472 126.852 28.2331 128.712 28.2331C130.506 28.2331 131.946 28.8394 133.036 30.0494C134.078 31.223 134.596 32.7387 134.596 34.5989ZM131.782 34.6624C131.782 33.5237 131.54 32.547 131.054 31.7295C130.485 30.7424 129.67 30.2489 128.614 30.2489C127.527 30.2489 126.693 30.7424 126.125 31.7295C125.638 32.547 125.396 33.5406 125.396 34.7142C125.396 35.8542 125.638 36.8336 126.125 37.6484C126.712 38.6355 127.531 39.1291 128.591 39.1291C129.629 39.1291 130.443 38.6252 131.031 37.6238C131.531 36.7869 131.782 35.8037 131.782 34.6624ZM143.425 30.9147C143.143 30.8628 142.856 30.8373 142.569 30.8383C141.614 30.8383 140.876 31.2036 140.356 31.9394C139.905 32.5871 139.679 33.4058 139.679 34.3943V40.9168H136.963V32.4006C136.966 31.0956 136.94 29.7908 136.885 28.4871H139.249L139.349 30.8655H139.424C139.712 30.0481 140.163 29.3887 140.781 28.8951C141.348 28.4638 142.036 28.2303 142.744 28.2293C142.995 28.2293 143.222 28.2474 143.423 28.2798L143.425 30.9147ZM155.568 34.1132C155.575 34.533 155.542 34.9525 155.469 35.3658H147.323C147.354 36.5939 147.749 37.5344 148.505 38.1821C149.192 38.7599 150.079 39.0501 151.169 39.0501C152.375 39.0501 153.476 38.8558 154.465 38.4632L154.891 40.3792C153.734 40.8922 152.369 41.1474 150.794 41.1474C148.899 41.1474 147.411 40.58 146.329 39.4478C145.249 38.3143 144.708 36.7908 144.708 34.8826C144.708 33.0094 145.211 31.4484 146.218 30.2035C147.273 28.8744 148.698 28.2098 150.491 28.2098C152.252 28.2098 153.585 28.8744 154.491 30.2035C155.208 31.2567 155.568 32.5625 155.568 34.1132ZM152.979 33.3968C152.998 32.5768 152.82 31.8707 152.452 31.2735C151.982 30.5041 151.259 30.1206 150.289 30.1206C149.402 30.1206 148.678 30.495 148.128 31.2463C147.676 31.8435 147.408 32.5612 147.325 33.3942L152.979 33.3968Z" fill="white"/>
<path d="M57.5767 17.5815C56.8215 17.5815 56.1682 17.544 55.6244 17.4805V9.14561C56.3849 9.0261 57.1535 8.96719 57.9231 8.96943C61.0368 8.96943 62.4708 10.5278 62.4708 13.0682C62.4708 15.9985 60.777 17.5815 57.5767 17.5815ZM58.0326 10.0382C57.6123 10.0382 57.2545 10.0641 56.9578 10.1263V16.4623C57.1182 16.4882 57.4264 16.4998 57.8594 16.4998C59.8996 16.4998 61.061 15.3184 61.061 13.1058C61.061 11.1328 60.0104 10.0382 58.0326 10.0382ZM66.9395 17.645C65.1846 17.645 64.0474 16.312 64.0474 14.5023C64.0474 12.6161 65.2088 11.2714 67.0389 11.2714C68.7683 11.2714 69.931 12.541 69.931 14.4025C69.931 16.312 68.7326 17.645 66.9395 17.645ZM66.9905 12.2637C66.0264 12.2637 65.4088 13.1809 65.4088 14.4634C65.4088 15.7213 66.0392 16.6384 66.9777 16.6384C67.9163 16.6384 68.5467 15.6578 68.5467 14.4375C68.5467 13.1939 67.929 12.2637 66.9905 12.2637ZM79.9382 11.3971L78.0598 17.5064H76.836L76.0579 14.8533C75.8644 14.2044 75.7033 13.5459 75.5752 12.8804H75.5497C75.4517 13.5462 75.2657 14.2134 75.0683 14.8533L74.2406 17.5064H73.004L71.2363 11.3971H72.6079L73.288 14.3015C73.4484 14.9932 73.5834 15.6461 73.6955 16.2628H73.721C73.819 15.7485 73.9795 15.1059 74.2151 14.3144L75.0683 11.3984H76.1559L76.9722 14.2522C77.1696 14.944 77.3301 15.6228 77.4549 16.2641H77.4906C77.5772 15.6358 77.7134 14.9686 77.8981 14.2522L78.6278 11.3984L79.9382 11.3971ZM86.8534 17.5064H85.5188V13.9983C85.5188 12.9179 85.1112 12.3764 84.3076 12.3764C83.5168 12.3764 82.973 13.0682 82.973 13.8727V17.5064H81.6384V13.1433C81.6384 12.6031 81.6256 12.0241 81.5887 11.3958H82.7629L82.8253 12.3389H82.8622C83.2214 11.686 83.9498 11.2714 84.7661 11.2714C86.0269 11.2714 86.8547 12.2521 86.8547 13.8481L86.8534 17.5064ZM90.5338 17.5064H89.1979V8.59375H90.5338V17.5064ZM95.3999 17.645C93.6463 17.645 92.5078 16.312 92.5078 14.5023C92.5078 12.6161 93.6692 11.2714 95.498 11.2714C97.2287 11.2714 98.3901 12.541 98.3901 14.4025C98.3914 16.312 97.1918 17.645 95.3999 17.645ZM95.4496 12.2637C94.4855 12.2637 93.8679 13.1809 93.8679 14.4634C93.8679 15.7213 94.4996 16.6384 95.4356 16.6384C96.3754 16.6384 97.0045 15.6578 97.0045 14.4375C97.0058 13.1939 96.3894 12.2637 95.4496 12.2637ZM103.652 17.5064L103.555 16.803H103.52C103.112 17.3691 102.518 17.645 101.764 17.645C100.688 17.645 99.9234 16.8781 99.9234 15.8469C99.9234 14.339 101.208 13.5592 103.433 13.5592V13.4465C103.433 12.642 103.014 12.2391 102.186 12.2391C101.594 12.2391 101.075 12.3907 100.618 12.6925L100.346 11.8C100.901 11.4476 101.594 11.2714 102.408 11.2714C103.977 11.2714 104.769 12.1135 104.769 13.7988V16.049C104.769 16.6656 104.796 17.1437 104.856 17.5077L103.652 17.5064ZM103.469 14.4634C101.987 14.4634 101.243 14.8287 101.243 15.6954C101.243 16.3366 101.626 16.6501 102.158 16.6501C102.837 16.6501 103.469 16.1229 103.469 15.4065V14.4634ZM111.25 17.5064L111.188 16.5257H111.151C110.767 17.2667 110.123 17.645 109.223 17.645C107.775 17.645 106.702 16.3496 106.702 14.5269C106.702 12.6161 107.814 11.2701 109.332 11.2701C110.136 11.2701 110.705 11.5461 111.026 12.1005H111.053V8.59375H112.389V15.8599C112.389 16.4506 112.403 17.0038 112.438 17.5064H111.25ZM111.053 13.9115C111.053 13.0565 110.496 12.3272 109.647 12.3272C108.657 12.3272 108.052 13.2198 108.052 14.4764C108.052 15.7083 108.68 16.5516 109.62 16.5516C110.459 16.5516 111.053 15.8094 111.053 14.9298V13.9115ZM120.859 17.645C119.105 17.645 117.968 16.312 117.968 14.5023C117.968 12.6161 119.129 11.2714 120.958 11.2714C122.689 11.2714 123.85 12.541 123.85 14.4025C123.851 16.312 122.653 17.645 120.859 17.645ZM120.908 12.2637C119.946 12.2637 119.328 13.1809 119.328 14.4634C119.328 15.7213 119.958 16.6384 120.896 16.6384C121.835 16.6384 122.465 15.6578 122.465 14.4375C122.467 13.1939 121.849 12.2637 120.908 12.2637ZM131.028 17.5064H129.692V13.9983C129.692 12.9179 129.284 12.3764 128.481 12.3764C127.69 12.3764 127.147 13.0682 127.147 13.8727V17.5064H125.811V13.1433C125.811 12.6031 125.799 12.0241 125.762 11.3958H126.936L126.998 12.3389H127.035C127.393 11.686 128.123 11.2701 128.938 11.2701C130.199 11.2701 131.028 12.2508 131.028 13.8468V17.5064ZM140.007 12.4153H138.539V15.3819C138.539 16.1371 138.796 16.5141 139.316 16.5141C139.551 16.5141 139.749 16.4882 139.908 16.4506L139.945 17.4818C139.686 17.5828 139.34 17.6333 138.909 17.6333C137.857 17.6333 137.228 17.0426 137.228 15.4959V12.4153H136.352V11.3971H137.228V10.2778L138.539 9.87494V11.3958H140.007V12.4153ZM147.073 17.5064H145.739V14.0242C145.739 12.9309 145.333 12.3777 144.528 12.3777C143.837 12.3777 143.192 12.8558 143.192 13.8234V17.5064H141.859V8.59375H143.192V12.2637H143.219C143.639 11.5979 144.248 11.2701 145.025 11.2701C146.296 11.2701 147.073 12.2754 147.073 13.8727V17.5064ZM154.311 14.7782H150.306C150.332 15.935 151.084 16.5879 152.198 16.5879C152.791 16.5879 153.336 16.4869 153.817 16.299L154.025 17.2421C153.457 17.4934 152.788 17.6191 152.01 17.6191C150.132 17.6191 149.02 16.4117 149.02 14.5398C149.02 12.6666 150.158 11.2585 151.86 11.2585C153.394 11.2585 154.357 12.4153 154.357 14.1629C154.366 14.3691 154.35 14.5756 154.311 14.7782ZM153.087 13.8105C153.087 12.8674 152.62 12.2016 151.767 12.2016C151 12.2016 150.394 12.8804 150.307 13.8105H153.087Z" fill="white"/>
</g>
<g clip-path="url(#clip1_4639_30943)">
<path d="M357.63 51.8912H198.37C194.803 51.8912 192 49.0427 192 45.4175V6.57526C192 2.94999 194.803 0.101562 198.37 0.101562H357.63C361.197 0.101562 364 2.94999 364 6.57526V45.4175C364 49.0427 361.197 51.8912 357.63 51.8912Z" fill="#282828"/>
<path d="M357.63 1.13735C360.56 1.13735 362.981 3.59736 362.981 6.57526V45.4175C362.981 48.3954 360.56 50.8554 357.63 50.8554H198.37C195.44 50.8554 193.019 48.3954 193.019 45.4175V6.57526C193.019 3.59736 195.44 1.13735 198.37 1.13735H357.63ZM357.63 0.101562H198.37C194.803 0.101562 192 3.07946 192 6.57526V45.4175C192 49.0427 194.803 51.8912 198.37 51.8912H357.63C361.197 51.8912 364 49.0427 364 45.4175V6.57526C364 3.07946 361.197 0.101562 357.63 0.101562Z" fill="#A6A6A6"/>
<path d="M252.391 13.3117C252.391 14.3475 252.136 15.2538 251.499 15.9012C250.735 16.678 249.843 17.0665 248.696 17.0665C247.55 17.0665 246.658 16.678 245.893 15.9012C245.129 15.1243 244.747 14.218 244.747 13.0528C244.747 11.8875 245.129 10.9812 245.893 10.2043C246.658 9.42748 247.55 9.03906 248.696 9.03906C249.206 9.03906 249.716 9.16854 250.225 9.42748C250.735 9.68643 251.117 9.94538 251.372 10.3338L250.735 10.9812C250.225 10.3338 249.588 10.0749 248.696 10.0749C247.932 10.0749 247.167 10.3338 246.658 10.9812C246.021 11.4991 245.766 12.2759 245.766 13.1822C245.766 14.0885 246.021 14.8654 246.658 15.3833C247.295 15.9012 247.932 16.2896 248.696 16.2896C249.588 16.2896 250.225 16.0307 250.862 15.3833C251.244 14.9949 251.499 14.477 251.499 13.8296H248.696V12.7938H252.391V13.3117ZM258.252 10.0749H254.812V12.5349H257.997V13.4412H254.812V15.9012H258.252V16.937H253.793V9.16854H258.252V10.0749ZM262.456 16.937H261.437V10.0749H259.271V9.16854H264.622V10.0749H262.456V16.937ZM268.317 16.937V9.16854H269.336V16.937H268.317ZM273.668 16.937H272.649V10.0749H270.483V9.16854H275.707V10.0749H273.541V16.937H273.668ZM285.772 15.9012C285.007 16.678 284.116 17.0665 282.969 17.0665C281.822 17.0665 280.93 16.678 280.166 15.9012C279.402 15.1243 279.019 14.218 279.019 13.0528C279.019 11.8875 279.402 10.9812 280.166 10.2043C280.93 9.42748 281.822 9.03906 282.969 9.03906C284.116 9.03906 285.007 9.42748 285.772 10.2043C286.536 10.9812 286.919 11.8875 286.919 13.0528C286.919 14.218 286.536 15.1243 285.772 15.9012ZM280.93 15.2538C281.44 15.7717 282.204 16.1601 282.969 16.1601C283.733 16.1601 284.498 15.9012 285.007 15.2538C285.517 14.7359 285.899 13.9591 285.899 13.0528C285.899 12.1464 285.644 11.3696 285.007 10.8517C284.498 10.3338 283.733 9.94538 282.969 9.94538C282.204 9.94538 281.44 10.2043 280.93 10.8517C280.421 11.3696 280.039 12.1464 280.039 13.0528C280.039 13.9591 280.293 14.7359 280.93 15.2538ZM288.32 16.937V9.16854H289.467L293.162 15.2538V9.16854H294.181V16.937H293.162L289.212 10.5928V16.937H288.32Z" fill="white" stroke="white" stroke-width="1.18519" stroke-miterlimit="10"/>
<path d="M278.764 28.3275C275.707 28.3275 273.286 30.658 273.286 33.8948C273.286 37.0022 275.707 39.4622 278.764 39.4622C281.822 39.4622 284.243 37.1317 284.243 33.8948C284.243 30.5285 281.822 28.3275 278.764 28.3275ZM278.764 37.1317C277.108 37.1317 275.707 35.7075 275.707 33.7654C275.707 31.8233 277.108 30.399 278.764 30.399C280.421 30.399 281.822 31.6938 281.822 33.7654C281.822 35.7075 280.421 37.1317 278.764 37.1317ZM266.916 28.3275C263.858 28.3275 261.437 30.658 261.437 33.8948C261.437 37.0022 263.858 39.4622 266.916 39.4622C269.973 39.4622 272.394 37.1317 272.394 33.8948C272.394 30.5285 269.973 28.3275 266.916 28.3275ZM266.916 37.1317C265.259 37.1317 263.858 35.7075 263.858 33.7654C263.858 31.8233 265.259 30.399 266.916 30.399C268.572 30.399 269.973 31.6938 269.973 33.7654C269.973 35.7075 268.572 37.1317 266.916 37.1317ZM252.773 30.0106V32.3412H258.252C258.125 33.6359 257.615 34.6717 256.978 35.3191C256.213 36.0959 254.939 37.0022 252.773 37.0022C249.333 37.0022 246.785 34.2833 246.785 30.7875C246.785 27.2917 249.461 24.5727 252.773 24.5727C254.557 24.5727 255.959 25.3496 256.978 26.2559L258.634 24.5727C257.233 23.278 255.449 22.2422 252.901 22.2422C248.314 22.2422 244.365 26.1264 244.365 30.7875C244.365 35.4485 248.314 39.3328 252.901 39.3328C255.449 39.3328 257.233 38.5559 258.762 36.8727C260.29 35.3191 260.8 33.118 260.8 31.4348C260.8 30.9169 260.8 30.399 260.673 30.0106H252.773ZM310.616 31.8233C310.107 30.5285 308.833 28.3275 306.03 28.3275C303.227 28.3275 300.933 30.5285 300.933 33.8948C300.933 37.0022 303.227 39.4622 306.284 39.4622C308.705 39.4622 310.234 37.9085 310.744 37.0022L308.96 35.7075C308.323 36.6138 307.559 37.2612 306.284 37.2612C305.01 37.2612 304.246 36.7433 303.609 35.578L310.871 32.4706L310.616 31.8233ZM303.227 33.6359C303.227 31.5643 304.883 30.399 306.03 30.399C306.922 30.399 307.813 30.9169 308.068 31.5643L303.227 33.6359ZM297.239 38.9443H299.659V22.7601H297.239V38.9443ZM293.416 29.4927C292.779 28.8454 291.76 28.198 290.486 28.198C287.81 28.198 285.262 30.658 285.262 33.7654C285.262 36.8727 287.683 39.2033 290.486 39.2033C291.76 39.2033 292.779 38.5559 293.289 37.9085H293.416V38.6854C293.416 40.757 292.27 41.9222 290.486 41.9222C289.085 41.9222 288.065 40.8864 287.81 39.9801L285.772 40.8864C286.409 42.3107 287.938 44.1233 290.613 44.1233C293.416 44.1233 295.71 42.4401 295.71 38.4264V28.5864H293.416V29.4927ZM290.613 37.1317C288.957 37.1317 287.556 35.7075 287.556 33.7654C287.556 31.8233 288.957 30.399 290.613 30.399C292.27 30.399 293.544 31.8233 293.544 33.7654C293.544 35.7075 292.27 37.1317 290.613 37.1317ZM321.701 22.7601H315.967V38.9443H318.388V32.8591H321.701C324.376 32.8591 326.924 30.9169 326.924 27.8096C326.924 24.7022 324.376 22.7601 321.701 22.7601ZM321.828 30.5285H318.388V24.9611H321.828C323.612 24.9611 324.631 26.5148 324.631 27.6801C324.504 29.1043 323.484 30.5285 321.828 30.5285ZM336.48 28.198C334.696 28.198 332.913 28.9748 332.276 30.658L334.442 31.5643C334.951 30.658 335.716 30.399 336.607 30.399C337.882 30.399 339.028 31.1759 339.156 32.4706V32.6001C338.773 32.3412 337.754 31.9527 336.735 31.9527C334.442 31.9527 332.148 33.2475 332.148 35.578C332.148 37.7791 334.059 39.2033 336.098 39.2033C337.754 39.2033 338.519 38.4264 339.156 37.6496H339.283V38.9443H341.576V32.7296C341.322 29.8812 339.156 28.198 336.48 28.198ZM336.225 37.1317C335.461 37.1317 334.314 36.7433 334.314 35.7075C334.314 34.4127 335.716 34.0243 336.862 34.0243C337.882 34.0243 338.391 34.2833 339.028 34.5422C338.773 36.0959 337.499 37.1317 336.225 37.1317ZM349.603 28.5864L346.927 35.578H346.8L343.997 28.5864H341.449L345.653 38.4264L343.233 43.8643H345.653L352.151 28.5864H349.603ZM328.199 38.9443H330.619V22.7601H328.199V38.9443Z" fill="white"/>
<path d="M205.25 9.8125C204.868 10.2009 204.741 10.8483 204.741 11.6251V40.2389C204.741 41.0157 204.996 41.6631 205.378 42.0515L205.505 42.181L221.304 26.1262V25.8673L205.25 9.8125Z" fill="url(#paint1_linear_4639_30943)"/>
<path d="M226.4 31.5678L221.176 26.2594V25.8709L226.4 20.5625L226.527 20.692L232.77 24.3172C234.554 25.353 234.554 27.0362 232.77 28.072L226.4 31.5678Z" fill="url(#paint2_linear_4639_30943)"/>
<path d="M226.527 31.4379L221.176 26L205.25 42.1843C205.887 42.8316 206.779 42.8316 207.926 42.3137L226.527 31.4379Z" fill="url(#paint3_linear_4639_30943)"/>
<path d="M226.527 20.5626L207.926 9.81624C206.779 9.16887 205.887 9.29834 205.25 9.94571L221.176 26.0005L226.527 20.5626Z" fill="url(#paint4_linear_4639_30943)"/>
<path opacity="0.2" d="M226.4 31.3125L207.926 41.9294C206.907 42.5767 206.015 42.4473 205.378 41.9294L205.25 42.0588L205.378 42.1883C206.015 42.7062 206.907 42.8357 207.926 42.1883L226.4 31.3125Z" fill="#282828"/>
<path opacity="0.12" d="M205.25 41.9253C204.868 41.5369 204.741 40.8895 204.741 40.1127V40.2421C204.741 41.019 204.996 41.6664 205.378 42.0548V41.9253H205.25ZM232.77 27.6832L226.4 31.3084L226.527 31.4379L232.77 27.8126C233.662 27.2947 234.044 26.6474 234.044 26C234.044 26.6474 233.535 27.1653 232.77 27.6832Z" fill="#282828"/>
<path opacity="0.25" d="M207.926 9.94565L232.77 24.3173C233.535 24.8352 234.044 25.3531 234.044 26.0004C234.044 25.3531 233.662 24.7057 232.77 24.1878L207.926 9.81617C206.142 8.78038 204.741 9.55722 204.741 11.6288V11.7583C204.741 9.81617 206.142 8.90985 207.926 9.94565Z" fill="white"/>
</g>
<defs>
<linearGradient id="paint0_linear_4639_30943" x1="126.025" y1="52.0425" x2="126.025" y2="-134.786" gradientUnits="userSpaceOnUse">
<stop stop-color="#1A1A1A" stop-opacity="0.1"/>
<stop offset="0.123" stop-color="#212121" stop-opacity="0.151"/>
<stop offset="0.308" stop-color="#353535" stop-opacity="0.227"/>
<stop offset="0.532" stop-color="#575757" stop-opacity="0.318"/>
<stop offset="0.783" stop-color="#858585" stop-opacity="0.421"/>
<stop offset="1" stop-color="#B3B3B3" stop-opacity="0.51"/>
</linearGradient>
<linearGradient id="paint1_linear_4639_30943" x1="219.775" y1="11.3791" x2="198.048" y2="32.7579" gradientUnits="userSpaceOnUse">
<stop stop-color="#00A0FF"/>
<stop offset="0.007" stop-color="#00A1FF"/>
<stop offset="0.26" stop-color="#00BEFF"/>
<stop offset="0.512" stop-color="#00D2FF"/>
<stop offset="0.76" stop-color="#00DFFF"/>
<stop offset="1" stop-color="#00E3FF"/>
</linearGradient>
<linearGradient id="paint2_linear_4639_30943" x1="235.107" y1="26.0017" x2="204.278" y2="26.0017" gradientUnits="userSpaceOnUse">
<stop stop-color="#FFE000"/>
<stop offset="0.409" stop-color="#FFBD00"/>
<stop offset="0.775" stop-color="#FFA500"/>
<stop offset="1" stop-color="#FF9C00"/>
</linearGradient>
<linearGradient id="paint3_linear_4639_30943" x1="223.631" y1="28.9727" x2="194.17" y2="57.9643" gradientUnits="userSpaceOnUse">
<stop stop-color="#FF3A44"/>
<stop offset="1" stop-color="#C31162"/>
</linearGradient>
<linearGradient id="paint4_linear_4639_30943" x1="201.297" y1="0.333562" x2="214.454" y2="13.2803" gradientUnits="userSpaceOnUse">
<stop stop-color="#32A071"/>
<stop offset="0.069" stop-color="#2DA771"/>
<stop offset="0.476" stop-color="#15CF74"/>
<stop offset="0.801" stop-color="#06E775"/>
<stop offset="1" stop-color="#00F076"/>
</linearGradient>
<clipPath id="clip0_4639_30943">
<rect width="172" height="52" fill="white"/>
</clipPath>
<clipPath id="clip1_4639_30943">
<rect width="172" height="52" fill="white" transform="translate(192)"/>
</clipPath>
</defs>
</svg>
