<svg width="80" height="80" viewBox="0 0 80 80" fill="none" xmlns="http://www.w3.org/2000/svg">
<rect width="80" height="80" rx="40" fill="#2D2C65"/>
<path d="M40.0479 56.9474C37.9173 56.9474 36.0103 56.5479 34.3271 55.7489C32.6438 54.9393 31.3068 53.8313 30.3161 52.4251C29.3359 51.0188 28.8139 49.4102 28.75 47.5991H34.5028C34.6094 48.9414 35.19 50.0387 36.2447 50.891C37.2994 51.7326 38.5671 52.1534 40.0479 52.1534C41.2092 52.1534 42.2425 51.8871 43.1481 51.3544C44.0536 50.8217 44.7674 50.0813 45.2894 49.1332C45.8114 48.185 46.0671 47.1037 46.0565 45.8892C46.0671 44.6534 45.8061 43.5561 45.2734 42.5973C44.7408 41.6385 44.011 40.8874 43.0842 40.3441C42.1573 39.7901 41.092 39.5131 39.8881 39.5131C38.908 39.5025 37.9439 39.6836 36.9957 40.0565C36.0476 40.4293 35.2965 40.9194 34.7425 41.5266L29.3892 40.6477L31.0991 23.7727H50.0835V28.7266H36.005L35.0621 37.4038H35.2539C35.8612 36.69 36.7188 36.0987 37.8267 35.63C38.9347 35.1506 40.1491 34.9109 41.4702 34.9109C43.4517 34.9109 45.2202 35.3796 46.7756 36.3171C48.331 37.244 49.5561 38.5224 50.451 40.1523C51.3459 41.7823 51.7933 43.6467 51.7933 45.7454C51.7933 47.908 51.2926 49.8363 50.2912 51.5302C49.3004 53.2134 47.9208 54.5398 46.1523 55.5092C44.3945 56.468 42.3597 56.9474 40.0479 56.9474Z" fill="white"/>
</svg>
