<svg width="80" height="80" viewBox="0 0 80 80" fill="none" xmlns="http://www.w3.org/2000/svg">
<rect width="80" height="80" rx="40" fill="#2D2C65"/>
<path d="M28.9338 56.5V52.2173L40.2956 41.0792C41.3823 39.9819 42.2878 39.0071 43.0123 38.1548C43.7367 37.3026 44.28 36.4769 44.6422 35.6779C45.0044 34.8789 45.1855 34.0266 45.1855 33.1211C45.1855 32.0877 44.9512 31.2035 44.4824 30.4684C44.0137 29.7227 43.3691 29.1474 42.5488 28.7425C41.7285 28.3377 40.7963 28.1353 39.7523 28.1353C38.6763 28.1353 37.7335 28.359 36.9238 28.8065C36.1142 29.2433 35.4856 29.8665 35.0382 30.6761C34.6014 31.4858 34.383 32.4499 34.383 33.5685H28.742C28.742 31.4911 29.2161 29.6854 30.1642 28.1513C31.1124 26.6172 32.4174 25.4293 34.0794 24.5877C35.752 23.7461 37.6696 23.3253 39.8322 23.3253C42.0268 23.3253 43.9551 23.7354 45.617 24.5558C47.2789 25.3761 48.568 26.5 49.4842 27.9276C50.411 29.3551 50.8745 30.9851 50.8745 32.8175C50.8745 34.0426 50.6401 35.2464 50.1713 36.429C49.7026 37.6115 48.877 38.9219 47.6944 40.3601C46.5225 41.7983 44.8766 43.5401 42.7566 45.5856L37.1156 51.3224V51.5462H51.3699V56.5H28.9338Z" fill="white"/>
</svg>
