<svg width="58" height="58" viewBox="0 0 58 58" fill="none" xmlns="http://www.w3.org/2000/svg">
<rect x="1" y="1" width="56" height="56" rx="28" fill="white"/>
<rect x="1" y="1" width="56" height="56" rx="28" stroke="#2D2C65" stroke-width="2"/>
<path d="M19.6667 33.6641H24.3333M19.6667 38.3307H29M24.3333 19.6641H19C16.7909 19.6641 15 21.4549 15 23.6641V38.9974C15 41.2065 16.7909 42.9974 19 42.9974H29.6667C31.8758 42.9974 33.6667 41.2065 33.6667 38.9974V29.5807" stroke="#2D2C65" stroke-width="2" stroke-linecap="round"/>
<path d="M29.0002 19.6667H38.3335M29.0002 24.3333H33.6668M33.1668 29H28.3335C26.1244 29 24.3335 27.2091 24.3335 25V19C24.3335 16.7909 26.1244 15 28.3335 15H39.0002C41.2093 15 43.0002 16.7909 43.0002 19V25C43.0002 27.2091 41.2093 29 39.0002 29H38.5406C38.408 29 38.2808 29.0527 38.1871 29.1464L34.5204 32.8131C34.2054 33.1281 33.6668 32.905 33.6668 32.4596V29.5C33.6668 29.2239 33.443 29 33.1668 29Z" stroke="#2D2C65" stroke-width="2" stroke-linecap="round"/>
</svg>
