<svg width="53" height="53" viewBox="0 0 53 53" fill="none" xmlns="http://www.w3.org/2000/svg">
<rect x="1" y="1" width="51" height="51" rx="25.5" stroke="#2D2C65" stroke-width="2"/>
<path d="M14.12 23.6121H38.8801M26.2866 15.7658L20.85 22.6572C20.3872 23.2438 20.29 24.0395 20.598 24.7203L26.2866 37.2943M26.7135 15.7658L32.1502 22.6572C32.613 23.2438 32.7102 24.0395 32.4022 24.7203L26.7135 37.2943M39.0273 24.9095L28.0062 37.5248C27.2093 38.437 25.7908 38.437 24.9939 37.5248L13.9728 24.9095C13.3214 24.1638 13.3136 23.0537 13.9547 22.299L19.0707 16.2756C19.4507 15.8282 20.008 15.5703 20.595 15.5703H32.4051C32.9921 15.5703 33.5495 15.8282 33.9295 16.2756L39.0455 22.299C39.6865 23.0537 39.6788 24.1638 39.0273 24.9095Z" stroke="#2D2C65" stroke-width="2" stroke-linecap="round" stroke-linejoin="round"/>
</svg>
