<svg width="30" height="30" viewBox="0 0 30 30" fill="none" xmlns="http://www.w3.org/2000/svg">
<path d="M21.7209 0H8.27874C3.71384 0 0 3.71402 0 8.27892V21.7211C0 26.2862 3.71384 30 8.27874 30H21.7209C26.2862 30 30 26.286 30 21.7211V8.27892C30.0002 3.71402 26.2862 0 21.7209 0ZM27.3384 21.7211C27.3384 24.8185 24.8185 27.3383 21.7211 27.3383H8.27874C5.18153 27.3384 2.66175 24.8185 2.66175 21.7211V8.27892C2.66175 5.18171 5.18153 2.66175 8.27874 2.66175H21.7209C24.8183 2.66175 27.3383 5.18171 27.3383 8.27892V21.7211H27.3384Z" fill="#282828"/>
<path d="M14.9998 7.27344C10.7373 7.27344 7.26953 10.7412 7.26953 15.0037C7.26953 19.266 10.7373 22.7336 14.9998 22.7336C19.2623 22.7336 22.73 19.266 22.73 15.0037C22.73 10.7412 19.2623 7.27344 14.9998 7.27344ZM14.9998 20.0716C12.2051 20.0716 9.93128 17.7982 9.93128 15.0035C9.93128 12.2087 12.2049 9.93501 14.9998 9.93501C17.7946 9.93501 20.0683 12.2087 20.0683 15.0035C20.0683 17.7982 17.7944 20.0716 14.9998 20.0716Z" fill="#282828"/>
<path d="M23.0535 5.01562C22.5407 5.01562 22.0369 5.22324 21.6747 5.58701C21.3108 5.94901 21.1016 6.45297 21.1016 6.96757C21.1016 7.48058 21.311 7.98436 21.6747 8.34813C22.0367 8.71013 22.5407 8.91952 23.0535 8.91952C23.5681 8.91952 24.0703 8.71013 24.4341 8.34813C24.7978 7.98436 25.0055 7.4804 25.0055 6.96757C25.0055 6.45297 24.7978 5.94901 24.4341 5.58701C24.0721 5.22324 23.5681 5.01562 23.0535 5.01562Z" fill="#282828"/>
</svg>
