<svg width="31" height="30" viewBox="0 0 31 30" fill="none" xmlns="http://www.w3.org/2000/svg">
<path d="M26.5293 0H5.31836C2.89542 0 0.923828 1.97159 0.923828 4.39453V25.6055C0.923828 28.0284 2.89542 30 5.31836 30H26.5293C28.9522 30 30.9238 28.0284 30.9238 25.6055V4.39453C30.9238 1.97159 28.9522 0 26.5293 0ZM11.5293 23.7891H8.01367V11.4844H11.5293V23.7891ZM11.5293 9.72656H8.01367V6.21094H11.5293V9.72656ZM23.834 23.7891H20.3184V16.7578C20.3184 15.7887 19.5296 15 18.5605 15C17.5915 15 16.8027 15.7887 16.8027 16.7578V23.7891H13.2871V11.4844H16.8027V12.147C17.7238 11.8607 18.3221 11.4844 19.4395 11.4844C21.8237 11.4869 23.834 13.6258 23.834 16.1536V23.7891Z" fill="#282828"/>
</svg>
