<svg width="334" height="333" viewBox="0 0 334 333" fill="none" xmlns="http://www.w3.org/2000/svg">
<path fill-rule="evenodd" clip-rule="evenodd" d="M156.263 326.888L311.186 237.443C332.765 224.984 340.3 197.465 327.914 176.012L239.192 22.3419C226.806 0.888355 199.256 -6.374 177.627 6.11321L22.7048 95.5577C1.07629 108.045 -6.40951 135.535 5.97672 156.989L94.698 310.659C107.084 332.112 134.635 339.375 156.263 326.888ZM248.21 186.563L204.258 165.471C220.889 149.074 222.932 127.185 211.267 106.869C210.454 105.461 209.411 103.992 208.193 102.56C196.317 88.3191 176.923 82.3015 158.735 86.3955C151.175 88.1065 143.757 90.9656 136.662 95.0621C123.156 102.86 112.773 114.031 106.232 126.998C94.6709 149.464 94.3963 177.127 107.903 200.522C121.467 224.014 145.533 237.559 170.797 238.828C175.938 239.031 181.156 238.802 186.24 238.002C195.583 236.556 204.931 233.423 213.641 228.395C226.609 220.908 236.573 210.366 243.129 198.103C245.195 194.451 246.898 190.62 248.21 186.563Z" fill="white" fill-opacity="0.25"/>
</svg>
