<svg width="47" height="47" viewBox="0 0 47 47" fill="none" xmlns="http://www.w3.org/2000/svg">
<path fill-rule="evenodd" clip-rule="evenodd" d="M7.88919 46.756H39.1106C43.4596 46.756 46.9998 43.2439 46.9998 38.9078V7.84826C46.9998 3.5121 43.4694 0 39.1106 0H7.88919C3.53041 0 0 3.5121 0 7.84826V38.9078C0 43.2439 3.53041 46.756 7.88919 46.756ZM34.0321 33.5315L29.2295 26.4877C33.1741 25.4576 35.393 22.3183 35.4028 18.2175C35.4028 17.933 35.3732 17.6191 35.3141 17.2954C34.7618 14.0972 32.3556 11.4877 29.2493 10.5164C27.9574 10.1142 26.5867 9.89838 25.1567 9.89838C22.435 9.89838 19.8907 10.6832 17.7705 12.0763C14.0626 14.47 11.6071 18.6394 11.6071 23.368C11.6071 28.1162 14.0626 32.2757 17.7705 34.6793C18.5298 35.16 19.3385 35.5818 20.1767 35.9056C21.7151 36.504 23.4014 36.8474 25.1567 36.8474C27.77 36.8474 30.196 36.1214 32.257 34.8362C32.8881 34.4634 33.4798 34.0318 34.0321 33.5315Z" fill="#FE9800"/>
</svg>
