<svg width="56" height="56" viewBox="0 0 56 56" fill="none" xmlns="http://www.w3.org/2000/svg">
<g clip-path="url(#clip0_0_14)">
<rect width="56" height="56" rx="9.4" fill="white"/>
<path fill-rule="evenodd" clip-rule="evenodd" d="M9.39991 56H46.6001C51.7818 56 56 51.7935 56 46.6001V9.39992C56 4.20646 51.7935 0 46.6001 0H9.39991C4.20646 0 0 4.20646 0 9.39992V46.6001C0 51.7935 4.20646 56 9.39991 56ZM40.549 40.1609L34.8268 31.7244C39.5268 30.4907 42.1705 26.7307 42.1822 21.8193C42.1822 21.4785 42.147 21.1025 42.0765 20.7148C41.4185 16.8843 38.5515 13.7588 34.8503 12.5956C33.3111 12.1139 31.6778 11.8554 29.9741 11.8554C26.7311 11.8554 23.6996 12.7953 21.1734 14.4638C16.7555 17.3308 13.8297 22.3245 13.8297 27.988C13.8297 33.6749 16.7555 38.6569 21.1734 41.5356C22.0782 42.1113 23.0417 42.6166 24.0404 43.0043C25.8734 43.7211 27.8826 44.1323 29.9741 44.1323C33.0878 44.1323 35.9783 43.2628 38.434 41.7236C39.186 41.2771 39.891 40.7601 40.549 40.1609Z" fill="#FE9800"/>
</g>
<defs>
<clipPath id="clip0_0_14">
<rect width="56" height="56" rx="9.4" fill="white"/>
</clipPath>
</defs>
</svg>
