<svg width="20" height="20" viewBox="0 0 20 20" fill="none" xmlns="http://www.w3.org/2000/svg">
<path d="M1.66699 5.83594L8.47109 10.5988C9.02207 10.9845 9.29756 11.1773 9.59721 11.252C9.8619 11.318 10.1387 11.318 10.4034 11.252C10.7031 11.1773 10.9786 10.9845 11.5296 10.5988L18.3337 5.83594M5.66699 16.6693H14.3337C15.7338 16.6693 16.4339 16.6693 16.9686 16.3968C17.439 16.1571 17.8215 15.7747 18.0612 15.3042C18.3337 14.7695 18.3337 14.0694 18.3337 12.6693V7.33594C18.3337 5.93581 18.3337 5.23574 18.0612 4.70096C17.8215 4.23056 17.439 3.8481 16.9686 3.60842C16.4339 3.33594 15.7338 3.33594 14.3337 3.33594H5.66699C4.26686 3.33594 3.5668 3.33594 3.03202 3.60842C2.56161 3.8481 2.17916 4.23056 1.93948 4.70096C1.66699 5.23574 1.66699 5.93581 1.66699 7.33594V12.6693C1.66699 14.0694 1.66699 14.7695 1.93948 15.3042C2.17916 15.7747 2.56161 16.1571 3.03202 16.3968C3.5668 16.6693 4.26686 16.6693 5.66699 16.6693Z" stroke="#6C737F" stroke-width="1.66667" stroke-linecap="round" stroke-linejoin="round"/>
</svg>
