<svg width="24" height="24" viewBox="0 0 24 24" fill="none" xmlns="http://www.w3.org/2000/svg">
<g clip-path="url(#clip0_0_84)">
<path d="M17.2175 1.19072C15.6399 0.427875 13.87 0 12.0001 0C10.1303 0 8.36037 0.427875 6.78274 1.19072L5.73926 12L6.78274 22.8093C8.36037 23.5721 10.1303 24 12.0001 24C13.87 24 15.6399 23.5721 17.2175 22.8093L18.261 12L17.2175 1.19072Z" fill="#FFDA44"/>
<path d="M6.78262 1.19531C2.76872 3.13627 0 7.24669 0 12.0042C0 16.7617 2.76872 20.8721 6.78262 22.813V1.19531Z" fill="#0052B4"/>
<path d="M17.2178 1.19531V22.813C21.2317 20.8721 24.0004 16.7617 24.0004 12.0042C24.0004 7.24669 21.2317 3.13627 17.2178 1.19531Z" fill="#D80027"/>
<path d="M16.174 9.44497H13.3044C13.3044 8.72459 12.7204 8.14062 12.0001 8.14062C11.2797 8.14062 10.6957 8.72459 10.6957 9.44497H7.82617C7.82617 10.1542 8.44403 10.7292 9.1532 10.7292H9.11045C9.11045 11.4385 9.68542 12.0135 10.3947 12.0135C10.3947 12.6415 10.8458 13.1633 11.4415 13.2748L10.4294 15.5596C10.9143 15.7567 11.4443 15.8663 12.0001 15.8663C12.5558 15.8663 13.0858 15.7567 13.5707 15.5596L12.5587 13.2748C13.1544 13.1633 13.6054 12.6415 13.6054 12.0135C14.3147 12.0135 14.8897 11.4385 14.8897 10.7292H14.8469C15.5561 10.7292 16.174 10.1542 16.174 9.44497Z" fill="#FF9811"/>
<path d="M12.0003 11.2188L10.3047 12.0014V13.5666L12.0003 14.6101L13.696 13.5666V12.0014L12.0003 11.2188Z" fill="#0052B4"/>
<path d="M13.696 10.4375H10.3047V12.0027H13.696V10.4375Z" fill="#D80027"/>
</g>
<defs>
<clipPath id="clip0_0_84">
<rect width="24" height="24" fill="white"/>
</clipPath>
</defs>
</svg>
