<svg width="14" height="14" viewBox="0 0 14 14" fill="none" xmlns="http://www.w3.org/2000/svg">
<g clip-path="url(#clip0_4639_28074)">
<path d="M5.68745 13.9999C5.54918 14.0006 5.414 13.9591 5.29996 13.8809C5.18592 13.8028 5.09845 13.6916 5.04925 13.5624L3.95987 10.7296C3.93781 10.6725 3.90405 10.6207 3.86078 10.5774C3.81751 10.5341 3.76566 10.5004 3.70858 10.4783L0.874948 9.38813C0.74587 9.33859 0.634848 9.25107 0.556535 9.13713C0.478221 9.02319 0.436298 8.88818 0.436298 8.74992C0.436298 8.61167 0.478221 8.47666 0.556535 8.36272C0.634848 8.24878 0.74587 8.16126 0.874948 8.11172L3.70776 7.02235C3.76484 7.00028 3.81669 6.96653 3.85996 6.92326C3.90323 6.87998 3.93699 6.82814 3.95905 6.77106L5.04925 3.93742C5.09879 3.80835 5.1863 3.69732 5.30024 3.61901C5.41418 3.5407 5.54919 3.49877 5.68745 3.49877C5.82571 3.49877 5.96072 3.5407 6.07466 3.61901C6.1886 3.69732 6.27611 3.80835 6.32565 3.93742L7.41503 6.77024C7.43709 6.82732 7.47084 6.87916 7.51412 6.92244C7.55739 6.96571 7.60923 6.99946 7.66632 7.02153L10.4827 8.10516C10.6171 8.15495 10.7328 8.24493 10.8141 8.36284C10.8955 8.48076 10.9386 8.62088 10.9374 8.76414C10.9354 8.89999 10.8925 9.03209 10.8145 9.14334C10.7365 9.25459 10.627 9.33986 10.4999 9.38813L7.66714 10.4775C7.61005 10.4996 7.55821 10.5333 7.51494 10.5766C7.47166 10.6199 7.43791 10.6717 7.41585 10.7288L6.32565 13.5624C6.27645 13.6916 6.18898 13.8028 6.07494 13.8809C5.9609 13.9591 5.82571 14.0006 5.68745 13.9999Z" fill="white"/>
<path d="M2.4062 4.81242C2.32514 4.81242 2.24598 4.78786 2.17916 4.74198C2.11234 4.69609 2.06098 4.63104 2.03186 4.55539L1.57085 3.35664C1.56085 3.33043 1.54543 3.30662 1.52559 3.28678C1.50576 3.26694 1.48195 3.25152 1.45573 3.24153L0.25698 2.78051C0.181341 2.75138 0.116301 2.70002 0.0704274 2.6332C0.0245541 2.56638 0 2.48723 0 2.40617C0 2.32512 0.0245541 2.24597 0.0704274 2.17915C0.116301 2.11232 0.181341 2.06097 0.25698 2.03184L1.45573 1.57082C1.48192 1.56079 1.50571 1.54535 1.52554 1.52552C1.54537 1.50568 1.56081 1.4819 1.57085 1.45571L2.02776 0.26762C2.05353 0.197675 2.09787 0.136075 2.15602 0.0894394C2.21417 0.042804 2.28393 0.0128969 2.3578 0.00293219C2.44649 -0.00784939 2.53624 0.0112854 2.61282 0.0573023C2.6894 0.103319 2.74842 0.173584 2.78053 0.256956L3.24155 1.45571C3.25159 1.4819 3.26702 1.50568 3.28686 1.52552C3.30669 1.54535 3.33048 1.56079 3.35667 1.57082L4.55542 2.03184C4.63106 2.06097 4.6961 2.11232 4.74197 2.17915C4.78784 2.24597 4.8124 2.32512 4.8124 2.40617C4.8124 2.48723 4.78784 2.56638 4.74197 2.6332C4.6961 2.70002 4.63106 2.75138 4.55542 2.78051L3.35667 3.24153C3.33045 3.25152 3.30664 3.26694 3.2868 3.28678C3.26696 3.30662 3.25154 3.33043 3.24155 3.35664L2.78053 4.55539C2.75142 4.63104 2.70006 4.69609 2.63324 4.74198C2.56641 4.78786 2.48726 4.81242 2.4062 4.81242Z" fill="white"/>
<path d="M10.9374 6.99992C10.849 6.9999 10.7627 6.97307 10.6898 6.92299C10.6169 6.87291 10.5609 6.80192 10.5292 6.71938L9.90468 5.09598C9.89369 5.06737 9.87681 5.04139 9.85515 5.01973C9.83348 4.99806 9.8075 4.98118 9.77889 4.9702L8.1555 4.34567C8.07302 4.31389 8.0021 4.25787 7.95209 4.185C7.90207 4.11213 7.8753 4.02581 7.8753 3.93742C7.8753 3.84904 7.90207 3.76272 7.95209 3.68985C8.0021 3.61698 8.07302 3.56096 8.1555 3.52918L9.77889 2.90465C9.8075 2.89366 9.83348 2.87679 9.85515 2.85512C9.87681 2.83345 9.89369 2.80748 9.90468 2.77887L10.5246 1.16696C10.5529 1.09073 10.6013 1.0236 10.6647 0.972707C10.7281 0.921814 10.8041 0.889061 10.8847 0.877932C10.9815 0.866217 11.0794 0.887161 11.1629 0.937442C11.2464 0.987723 11.3108 1.06446 11.3457 1.15547L11.9702 2.77887C11.9812 2.80748 11.9981 2.83345 12.0198 2.85512C12.0414 2.87679 12.0674 2.89366 12.096 2.90465L13.7194 3.52918C13.8019 3.56096 13.8728 3.61698 13.9228 3.68985C13.9728 3.76272 13.9996 3.84904 13.9996 3.93742C13.9996 4.02581 13.9728 4.11213 13.9228 4.185C13.8728 4.25787 13.8019 4.31389 13.7194 4.34567L12.096 4.9702C12.0674 4.98118 12.0414 4.99806 12.0198 5.01973C11.9981 5.04139 11.9812 5.06737 11.9702 5.09598L11.3457 6.71938C11.314 6.80192 11.258 6.87291 11.1851 6.92299C11.1122 6.97307 11.0259 6.9999 10.9374 6.99992Z" fill="white"/>
</g>
<defs>
<clipPath id="clip0_4639_28074">
<rect width="14" height="14" fill="white"/>
</clipPath>
</defs>
</svg>
